<?xml version="1.0" standalone="no"?>
<!DOCTYPE svg PUBLIC "-//W3C//DTD SVG 20010904//EN"
 "http://www.w3.org/TR/2001/REC-SVG-20010904/DTD/svg10.dtd">
<svg version="1.0" xmlns="http://www.w3.org/2000/svg"
 width="36pt" height="36pt" viewBox="0 0 512.000000 512.000000"
 preserveAspectRatio="xMidYMid meet">

<g transform="translate(0.000000,512.000000) scale(0.100000,-0.100000)"
fill="#FFFFFF" stroke="none">
<path d="M2433 4546 c-107 -35 -204 -120 -256 -225 -27 -56 -32 -77 -35 -160
-3 -78 0 -108 16 -156 20 -56 20 -61 4 -77 -9 -9 -298 -235 -641 -502 l-624
-486 -349 0 c-277 0 -356 -3 -382 -14 -47 -19 -113 -82 -139 -130 l-22 -41 0
-1005 0 -1005 22 -41 c26 -48 91 -110 142 -132 33 -16 222 -17 2386 -17 1974
0 2356 2 2389 14 49 17 121 82 149 136 l22 40 0 1005 0 1005 -22 40 c-28 52
-88 110 -135 130 -25 10 -69 15 -133 15 -105 0 -135 -14 -135 -66 0 -60 41
-84 146 -84 56 0 68 -3 96 -29 l33 -29 0 -981 0 -981 -26 -25 c-14 -15 -43
-30 -65 -35 -52 -13 -4576 -13 -4628 0 -22 5 -51 20 -65 35 l-26 25 0 981 0
981 33 29 32 29 2105 0 c1431 0 2112 3 2131 10 55 21 71 78 34 118 -19 20 -30
22 -144 22 l-122 0 -625 486 c-343 267 -632 493 -641 502 -16 16 -16 21 4 77
16 48 19 78 16 156 -3 83 -8 104 -36 161 -41 83 -117 159 -201 200 -58 29 -75
33 -165 35 -65 2 -116 -2 -143 -11z m237 -157 c101 -45 160 -138 160 -249 -1
-156 -115 -270 -270 -270 -155 0 -269 114 -270 270 0 155 114 270 270 270 44
0 80 -7 110 -21z m-340 -604 c68 -46 136 -65 230 -65 94 0 162 19 230 65 29
19 54 35 56 35 8 0 1109 -862 1112 -871 2 -5 -534 -9 -1398 -9 -876 0 -1400 4
-1398 9 3 9 1105 871 1113 871 2 0 26 -16 55 -35z"/>
<path d="M338 2611 c-32 -28 -33 -32 -36 -118 -3 -78 -1 -90 18 -110 28 -31
82 -31 110 -1 14 15 20 35 20 65 l0 43 2110 0 2110 0 0 -745 0 -745 -434 0
-435 0 -20 -26 c-27 -35 -26 -57 3 -91 l24 -28 465 0 c457 0 466 0 494 21 55
41 53 5 50 887 l-2 819 -33 29 -32 29 -2190 0 -2190 0 -32 -29z"/>
<path d="M343 2180 c-12 -5 -27 -18 -33 -29 -7 -14 -10 -204 -8 -627 l3 -606
32 -28 c20 -18 48 -31 75 -35 24 -3 739 -5 1590 -3 1532 3 1548 3 1567 23 31
32 35 67 11 98 l-21 27 -1555 0 -1554 0 0 569 c0 527 -1 570 -17 589 -21 25
-60 35 -90 22z"/>
<path d="M954 2111 c-302 -72 -377 -481 -121 -654 126 -86 284 -88 395 -6 73
53 89 119 39 154 -32 22 -65 18 -101 -12 -66 -55 -139 -67 -211 -34 -133 62
-171 229 -76 334 71 79 160 97 262 51 39 -18 67 -24 83 -20 32 8 59 57 50 91
-18 70 -199 124 -320 96z"/>
<path d="M1485 2095 l-25 -24 0 -316 0 -316 25 -24 c23 -24 30 -25 148 -25
111 0 127 2 151 21 34 27 36 77 3 107 -20 19 -35 22 -100 22 l-77 0 0 265 0
266 -25 24 c-13 14 -36 25 -50 25 -14 0 -37 -11 -50 -25z"/>
<path d="M2184 2111 c-96 -23 -193 -100 -237 -188 -105 -206 1 -454 222 -517
185 -54 382 49 446 233 19 56 19 176 0 232 -62 176 -253 282 -431 240z m164
-157 c144 -60 179 -249 65 -356 -149 -142 -401 4 -353 204 31 126 172 201 288
152z"/>
<path d="M2918 2106 c-57 -21 -85 -42 -115 -87 -38 -57 -42 -129 -11 -188 29
-57 50 -72 173 -122 131 -53 145 -62 145 -99 0 -23 -7 -35 -32 -50 -57 -34
-131 -22 -202 33 -67 53 -136 30 -136 -45 0 -39 54 -91 130 -127 74 -35 204
-37 265 -4 80 42 125 112 125 193 0 107 -57 167 -222 231 -68 28 -110 50 -114
61 -9 28 14 57 51 64 43 8 76 0 139 -32 51 -27 82 -26 110 2 23 23 20 80 -5
105 -61 61 -220 96 -301 65z"/>
<path d="M3469 2109 c-46 -17 -49 -39 -49 -365 l0 -305 25 -24 c23 -24 28 -25
173 -25 142 0 149 1 170 23 31 33 29 80 -4 106 -23 18 -41 21 -120 21 l-94 0
0 70 0 70 90 0 c105 0 130 15 130 74 0 57 -35 76 -136 76 l-84 0 0 70 0 70
100 0 c87 0 103 3 120 20 25 25 26 71 1 101 -18 23 -26 24 -158 26 -76 1 -150
-2 -164 -8z"/>
<path d="M3933 2078 c-23 -24 -23 -27 -23 -332 l0 -307 25 -24 c23 -24 31 -25
133 -25 141 0 199 17 263 77 88 82 128 210 108 349 -12 84 -36 140 -85 193
-66 74 -99 85 -259 89 -137 4 -140 3 -162 -20z m298 -153 c64 -57 83 -202 38
-292 -33 -66 -76 -93 -150 -93 l-59 0 0 206 0 206 74 -4 c56 -2 80 -8 97 -23z"/>
</g>
</svg>
