<?xml version="1.0" standalone="no"?>
<!DOCTYPE svg PUBLIC "-//W3C//DTD SVG 20010904//EN"
 "http://www.w3.org/TR/2001/REC-SVG-20010904/DTD/svg10.dtd">
<svg version="1.0" xmlns="http://www.w3.org/2000/svg"
 width="36pt" height="36pt" viewBox="0 0 512.000000 512.000000"
 preserveAspectRatio="xMidYMid meet">

<g transform="translate(0.000000,512.000000) scale(0.100000,-0.100000)"
fill="#FFFFFF" stroke="none">
<path d="M1192 5095 c-56 -25 -107 -71 -138 -127 l-29 -53 -5 -444 -5 -444
-425 -117 c-234 -64 -439 -123 -455 -132 -42 -22 -83 -65 -108 -113 -47 -89
-62 -27 436 -1839 352 -1281 463 -1670 484 -1705 42 -67 108 -105 192 -109 60
-3 125 12 744 182 l678 186 677 -186 c619 -170 683 -185 743 -182 84 4 150 42
192 109 21 35 76 219 219 743 l191 697 -20 27 c-30 41 -101 43 -122 3 -6 -10
-94 -324 -196 -697 -207 -754 -200 -734 -279 -734 -56 1 -1126 296 -1101 303
11 4 136 38 278 77 142 38 273 76 291 84 19 8 52 32 73 54 l39 40 174 4 c159
3 179 6 220 27 61 32 97 67 128 126 l27 50 3 1474 2 1473 27 -7 c15 -3 199
-53 408 -111 348 -95 382 -106 408 -134 15 -17 27 -41 27 -55 0 -14 -101 -394
-225 -845 -124 -451 -225 -830 -225 -841 0 -28 44 -69 73 -69 59 0 54 -13 293
855 124 451 227 840 231 865 12 96 -44 200 -130 245 -29 15 -235 76 -467 139
l-415 113 -5 178 c-5 171 -6 177 -29 196 -32 26 -67 24 -96 -6 l-25 -24 0
-1698 c0 -1597 -1 -1700 -18 -1732 -9 -19 -33 -43 -52 -53 -33 -17 -93 -18
-1320 -18 -1227 0 -1287 1 -1320 18 -72 38 -70 16 -70 690 l0 603 -25 24 c-31
32 -69 32 -101 0 l-25 -25 3 -627 3 -628 27 -51 c29 -56 68 -93 132 -127 l41
-22 996 -5 996 -5 -1016 -278 c-559 -153 -1032 -277 -1052 -277 -77 0 -44
-104 -543 1718 -251 914 -456 1674 -456 1687 0 14 12 38 28 55 25 28 59 39
430 140 221 61 405 110 407 110 3 0 5 -313 5 -695 l0 -696 25 -24 c29 -30 64
-32 96 -6 l24 19 5 1212 5 1212 37 34 38 34 1310 0 1310 0 38 -34 37 -34 5
-117 c5 -108 7 -118 29 -136 32 -26 67 -24 97 7 26 25 26 27 22 147 -3 113 -6
126 -33 175 -31 57 -81 103 -139 127 -53 22 -2683 22 -2734 0z"/>
<path d="M1606 4768 c-17 -16 -60 -117 -146 -344 -115 -303 -121 -323 -109
-350 17 -35 59 -52 96 -38 22 7 34 24 54 74 l26 65 134 3 134 3 19 -53 c23
-67 51 -98 88 -98 31 0 78 39 78 64 0 16 -195 544 -231 625 -10 24 -27 50 -37
57 -27 21 -78 17 -106 -8z m97 -345 l35 -93 -74 0 c-41 0 -74 4 -74 8 0 5 11
37 25 73 39 97 45 112 49 108 3 -2 20 -46 39 -96z"/>
<path d="M2458 3739 c-65 -15 -158 -68 -208 -118 -78 -78 -130 -203 -130 -316
l0 -50 -70 -33 c-92 -43 -162 -114 -209 -211 -34 -73 -36 -81 -36 -181 1 -85
5 -116 23 -160 96 -239 376 -348 605 -233 l47 23 0 -109 0 -109 -111 -4 c-107
-3 -112 -4 -135 -31 -29 -34 -30 -56 -3 -91 l20 -26 309 0 309 0 20 26 c27 35
26 57 -3 91 -23 27 -28 28 -135 31 l-111 4 0 109 0 109 38 -19 c193 -99 424
-47 554 124 64 83 82 144 83 265 0 100 -2 108 -36 181 -47 97 -117 168 -209
211 l-70 33 0 50 c-1 204 -147 390 -341 434 -53 12 -150 12 -201 0z m205 -159
c63 -24 127 -84 159 -149 24 -50 29 -124 14 -217 -7 -45 -6 -54 12 -72 11 -11
39 -23 63 -27 163 -27 269 -155 257 -309 -15 -187 -190 -305 -372 -252 -58 17
-117 65 -176 145 -21 27 -33 34 -60 34 -27 0 -39 -7 -60 -34 -59 -80 -118
-128 -176 -145 -182 -53 -357 65 -372 252 -12 154 94 282 257 309 24 4 52 16
63 27 18 18 19 27 12 72 -15 93 -10 167 14 217 67 138 223 202 365 149z"/>
<path d="M3165 1785 c-14 -13 -25 -32 -25 -42 0 -36 241 -658 262 -675 30 -26
90 -23 115 5 12 12 76 166 143 342 121 316 121 320 106 352 -19 39 -58 53 -94
32 -28 -16 -34 -24 -62 -91 l-19 -48 -134 0 -133 0 -19 52 c-34 94 -90 124
-140 73z m365 -281 c0 -16 -66 -184 -72 -184 -3 0 -10 12 -16 28 -5 15 -21 57
-35 95 l-26 67 74 0 c41 0 75 -3 75 -6z"/>
</g>
</svg>
