<?xml version="1.0" standalone="no"?>
<!DOCTYPE svg PUBLIC "-//W3C//DTD SVG 20010904//EN"
 "http://www.w3.org/TR/2001/REC-SVG-20010904/DTD/svg10.dtd">
<svg version="1.0" xmlns="http://www.w3.org/2000/svg"
 width="512.000000pt" height="512.000000pt" viewBox="0 0 512.000000 512.000000"
 preserveAspectRatio="xMidYMid meet">

<g transform="translate(0.000000,512.000000) scale(0.100000,-0.100000)"
fill="#108297" stroke="none">
<path d="M3315 4526 c-29 -29 -21 5 -95 -415 -53 -299 -66 -356 -102 -445 -35
-86 -41 -112 -41 -177 -1 -64 4 -85 31 -143 18 -38 32 -70 32 -72 0 -2 -557
-4 -1238 -4 -1229 0 -1239 0 -1257 -20 -25 -28 -23 -76 4 -103 l22 -22 1382
-5 1382 -5 55 -24 c47 -20 67 -22 140 -19 62 3 97 10 127 26 42 22 46 22 628
22 l585 0 0 -75 0 -75 -2410 0 -2410 0 0 74 0 74 111 4 c107 3 112 4 135 31
29 34 30 56 3 91 l-20 26 -169 0 c-224 0 -210 15 -210 -219 1 -129 4 -181 14
-193 21 -28 62 -38 152 -38 l84 0 0 -155 0 -155 -105 0 c-92 0 -108 -3 -125
-20 -23 -23 -26 -67 -6 -92 21 -28 62 -38 152 -38 l84 0 0 -150 0 -150 -105 0
c-92 0 -108 -3 -125 -20 -23 -23 -26 -67 -6 -92 21 -28 62 -38 152 -38 l84 0
0 -150 0 -150 -105 0 c-92 0 -108 -3 -125 -20 -23 -23 -26 -67 -6 -92 21 -28
62 -38 152 -38 l84 0 0 -150 0 -150 -105 0 c-92 0 -108 -3 -125 -20 -23 -23
-26 -67 -6 -92 21 -28 62 -38 152 -38 l84 0 0 -150 0 -150 -105 0 c-92 0 -108
-3 -125 -20 -38 -38 -20 -99 34 -120 38 -14 4974 -14 5012 0 55 21 71 78 34
118 -19 20 -31 22 -125 22 l-105 0 0 150 0 150 84 0 c90 0 131 10 152 38 20
25 17 65 -6 90 -19 20 -31 22 -125 22 l-105 0 0 150 0 150 84 0 c90 0 131 10
152 38 20 25 17 65 -6 90 -19 20 -31 22 -125 22 l-105 0 0 150 0 150 84 0 c90
0 131 10 152 38 20 25 17 65 -6 90 -19 20 -31 22 -125 22 l-105 0 0 150 0 150
84 0 c90 0 131 10 152 38 20 25 17 65 -6 90 -19 20 -31 22 -125 22 l-105 0 0
155 0 155 84 0 c90 0 131 10 152 38 10 12 13 64 14 193 0 163 -1 177 -20 197
l-21 22 -569 0 c-467 0 -570 2 -570 13 0 46 72 167 253 429 112 162 209 304
216 315 21 41 13 74 -28 113 -48 46 -115 70 -192 70 -32 0 -61 5 -64 10 -3 6
-22 10 -41 10 -65 0 -94 -63 -59 -130 23 -45 46 -52 137 -44 74 6 81 5 75 -10
-7 -17 -176 -266 -181 -266 -1 0 -155 63 -342 139 -266 110 -340 144 -342 159
-2 10 8 81 22 157 15 76 26 142 26 147 0 18 43 -15 72 -57 46 -65 76 -74 146
-44 37 15 86 25 140 29 72 4 87 9 103 29 26 32 24 67 -6 96 -21 22 -33 25 -98
25 -41 0 -96 -7 -123 -15 l-49 -14 -40 39 c-80 78 -201 105 -250 56z m343
-745 c166 -69 302 -129 302 -134 0 -15 -61 -98 -70 -95 -5 2 -135 55 -290 118
l-281 115 7 55 c6 59 11 73 23 68 4 -2 144 -59 309 -127z m-97 -256 c138 -57
254 -106 257 -109 10 -10 -31 -98 -61 -133 -71 -81 -141 -84 -313 -14 -142 57
-194 100 -213 175 -12 49 -7 86 25 161 11 28 19 35 34 30 10 -3 132 -53 271
-110z m-2863 -857 l-3 -153 -145 0 -145 0 -3 153 -3 152 151 0 151 0 -3 -152z
m450 0 l-3 -153 -147 -3 -148 -3 0 156 0 155 150 0 151 0 -3 -152z m442 -3 l0
-155 -145 0 -145 0 0 155 0 155 145 0 145 0 0 -155z m448 3 l-3 -153 -145 0
-145 0 -3 153 -3 152 151 0 151 0 -3 -152z m442 -3 l0 -155 -145 0 -145 0 0
155 0 155 145 0 145 0 0 -155z m450 0 l0 -155 -145 0 -145 0 0 155 0 155 145
0 145 0 0 -155z m448 3 l-3 -153 -145 0 -145 0 -3 153 -3 152 151 0 151 0 -3
-152z m442 -3 l0 -155 -145 0 -145 0 0 155 0 155 145 0 145 0 0 -155z m450 0
l0 -156 -147 3 -148 3 -3 153 -3 152 151 0 150 0 0 -155z m448 3 l-3 -153
-145 0 -145 0 -3 153 -3 152 151 0 151 0 -3 -152z m-4020 -455 l-3 -148 -145
0 -145 0 -3 148 -3 147 151 0 151 0 -3 -147z m450 0 l-3 -148 -147 -3 -148 -3
0 151 0 150 150 0 151 0 -3 -147z m442 -3 l0 -150 -145 0 -145 0 0 150 0 150
145 0 145 0 0 -150z m448 3 l-3 -148 -145 0 -145 0 -3 148 -3 147 151 0 151 0
-3 -147z m442 -3 l0 -150 -145 0 -145 0 0 150 0 150 145 0 145 0 0 -150z m450
0 l0 -150 -145 0 -145 0 0 150 0 150 145 0 145 0 0 -150z m448 3 l-3 -148
-145 0 -145 0 -3 148 -3 147 151 0 151 0 -3 -147z m442 -3 l0 -150 -145 0
-145 0 0 150 0 150 145 0 145 0 0 -150z m450 0 l0 -151 -147 3 -148 3 -3 148
-3 147 151 0 150 0 0 -150z m448 3 l-3 -148 -145 0 -145 0 -3 148 -3 147 151
0 151 0 -3 -147z m-4020 -450 l-3 -148 -145 0 -145 0 -3 148 -3 147 151 0 151
0 -3 -147z m450 0 l-3 -148 -147 -3 -148 -3 0 151 0 150 150 0 151 0 -3 -147z
m442 -3 l0 -150 -145 0 -145 0 0 150 0 150 145 0 145 0 0 -150z m448 3 l-3
-148 -145 0 -145 0 -3 148 -3 147 151 0 151 0 -3 -147z m442 -3 l0 -150 -145
0 -145 0 0 150 0 150 145 0 145 0 0 -150z m450 0 l0 -150 -145 0 -145 0 0 150
0 150 145 0 145 0 0 -150z m448 3 l-3 -148 -145 0 -145 0 -3 148 -3 147 151 0
151 0 -3 -147z m442 -3 l0 -150 -145 0 -145 0 0 150 0 150 145 0 145 0 0 -150z
m450 0 l0 -151 -147 3 -148 3 -3 148 -3 147 151 0 150 0 0 -150z m448 3 l-3
-148 -145 0 -145 0 -3 148 -3 147 151 0 151 0 -3 -147z m-4020 -450 l-3 -148
-145 0 -145 0 -3 148 -3 147 151 0 151 0 -3 -147z m450 0 l-3 -148 -147 -3
-148 -3 0 151 0 150 150 0 151 0 -3 -147z m442 -3 l0 -150 -145 0 -145 0 0
150 0 150 145 0 145 0 0 -150z m448 3 l-3 -148 -145 0 -145 0 -3 148 -3 147
151 0 151 0 -3 -147z m442 -3 l0 -150 -145 0 -145 0 0 150 0 150 145 0 145 0
0 -150z m450 0 l0 -150 -145 0 -145 0 0 150 0 150 145 0 145 0 0 -150z m448 3
l-3 -148 -145 0 -145 0 -3 148 -3 147 151 0 151 0 -3 -147z m442 -3 l0 -150
-145 0 -145 0 0 150 0 150 145 0 145 0 0 -150z m450 0 l0 -151 -147 3 -148 3
-3 148 -3 147 151 0 150 0 0 -150z m448 3 l-3 -148 -145 0 -145 0 -3 148 -3
147 151 0 151 0 -3 -147z m-4020 -450 l-3 -148 -145 0 -145 0 -3 148 -3 147
151 0 151 0 -3 -147z m450 0 l-3 -148 -147 -3 -148 -3 0 151 0 150 150 0 151
0 -3 -147z m442 -3 l0 -150 -145 0 -145 0 0 150 0 150 145 0 145 0 0 -150z
m448 3 l-3 -148 -145 0 -145 0 -3 148 -3 147 151 0 151 0 -3 -147z m442 -3 l0
-150 -145 0 -145 0 0 150 0 150 145 0 145 0 0 -150z m450 0 l0 -150 -145 0
-145 0 0 150 0 150 145 0 145 0 0 -150z m448 3 l-3 -148 -145 0 -145 0 -3 148
-3 147 151 0 151 0 -3 -147z m442 -3 l0 -150 -145 0 -145 0 0 150 0 150 145 0
145 0 0 -150z m450 0 l0 -151 -147 3 -148 3 -3 148 -3 147 151 0 150 0 0 -150z
m448 3 l-3 -148 -145 0 -145 0 -3 148 -3 147 151 0 151 0 -3 -147z"/>
<path d="M2872 4074 c-18 -12 -22 -25 -22 -68 0 -64 16 -113 40 -126 30 -16
64 -12 88 10 38 36 25 167 -18 190 -27 15 -62 12 -88 -6z"/>
<path d="M2546 3927 c-40 -40 -35 -74 22 -130 54 -53 97 -62 132 -27 33 33 26
75 -22 126 -55 57 -96 67 -132 31z"/>
<path d="M2407 3610 c-47 -30 -40 -109 11 -128 49 -19 104 -24 132 -12 54 22
61 103 11 129 -30 17 -133 23 -154 11z"/>
</g>
</svg>
