<?xml version="1.0" standalone="no"?>
<!DOCTYPE svg PUBLIC "-//W3C//DTD SVG 20010904//EN"
 "http://www.w3.org/TR/2001/REC-SVG-20010904/DTD/svg10.dtd">
<svg version="1.0" xmlns="http://www.w3.org/2000/svg"
 width="36pt" height="36pt" viewBox="0 0 512.000000 512.000000"
 preserveAspectRatio="xMidYMid meet">

<g transform="translate(0.000000,512.000000) scale(0.100000,-0.100000)"
fill="#ffffff" stroke="none">
<path d="M2416 5055 c-117 -70 -170 -143 -170 -235 0 -61 16 -97 114 -260 65
-108 80 -147 80 -202 0 -49 -19 -95 -59 -141 -37 -42 -39 -80 -4 -85 16 -2 32
10 62 50 105 140 98 222 -42 451 -76 124 -92 165 -82 214 8 46 72 114 141 149
46 25 54 33 52 54 -4 34 -41 36 -92 5z"/>
<path d="M2643 5050 c-103 -59 -166 -147 -166 -230 0 -49 26 -107 131 -289 34
-57 64 -120 67 -141 9 -54 -9 -108 -55 -164 -45 -54 -50 -80 -19 -96 17 -10
25 -6 58 31 62 67 86 123 86 199 0 74 -24 132 -116 285 -85 141 -95 176 -65
234 19 36 85 95 135 120 47 24 54 34 46 61 -9 28 -41 25 -102 -10z"/>
<path d="M2890 5056 c-112 -60 -170 -140 -170 -237 0 -63 18 -105 96 -232 79
-127 94 -163 94 -228 0 -46 -5 -63 -32 -104 -59 -87 -61 -92 -55 -108 11 -29
44 -19 81 25 61 71 79 118 74 201 -3 75 -32 145 -98 242 -49 72 -93 169 -93
205 0 20 8 50 16 67 20 38 90 97 141 118 32 13 37 20 34 43 -4 36 -31 38 -88
8z"/>
<path d="M2446 4049 c-224 -76 -335 -311 -252 -529 38 -98 132 -196 222 -230
367 -140 704 251 504 583 -96 159 -300 234 -474 176z m365 -489 c23 -13 25
-46 3 -54 -9 -3 -38 -6 -65 -6 -65 0 -177 -17 -260 -40 -44 -12 -71 -15 -82
-8 -21 11 -22 32 -3 47 20 17 182 50 291 60 50 5 91 9 93 10 2 0 12 -4 23 -9z"/>
<path d="M2073 3389 c-32 -45 -92 -129 -134 -188 -202 -284 -251 -356 -260
-378 -17 -45 -9 -96 35 -237 108 -344 196 -627 215 -693 34 -115 87 -163 179
-163 38 0 58 6 89 29 38 28 73 89 73 129 0 29 -147 519 -176 587 -9 22 -18 50
-20 61 -1 12 -14 62 -29 111 l-27 89 124 176 c67 97 125 174 127 172 2 -2 -13
-38 -33 -79 l-37 -76 0 -285 c1 -318 -9 -253 91 -583 46 -155 49 -197 16 -267
-27 -59 -70 -95 -141 -119 -79 -26 -154 -7 -223 59 l-33 31 -34 -40 c-80 -94
-85 -111 -134 -480 -11 -82 -27 -195 -36 -250 -97 -635 -109 -731 -96 -791 24
-104 109 -168 226 -169 85 0 133 24 184 91 32 42 35 55 57 202 12 86 27 184
33 217 6 33 16 98 22 145 6 47 22 157 35 245 13 88 35 237 47 330 l23 170 123
163 123 162 82 0 81 0 119 -158 c71 -92 123 -171 128 -192 5 -19 22 -132 39
-250 136 -961 138 -973 167 -1020 86 -139 292 -145 385 -12 44 65 47 143 12
367 -14 94 -39 269 -56 390 -16 121 -36 261 -44 310 -8 50 -24 156 -35 236
-11 81 -26 162 -34 181 -15 35 -99 153 -117 164 -6 3 -25 -10 -42 -30 -40 -44
-96 -75 -150 -82 -88 -12 -196 54 -233 142 -28 67 -18 122 66 373 l81 238 -3
286 c-3 331 -14 316 105 143 l75 -108 -79 -232 c-199 -580 -201 -588 -196
-634 15 -138 189 -192 284 -90 14 14 53 112 99 244 41 120 113 328 160 462 46
133 84 258 84 278 0 19 -7 49 -16 67 -15 28 -246 360 -344 492 -20 28 -50 69
-66 92 -16 24 -31 43 -34 43 -3 0 -17 -20 -33 -44 -41 -65 -124 -138 -200
-176 -59 -29 -80 -34 -165 -38 -74 -3 -113 0 -158 13 -111 32 -213 110 -278
214 -15 22 -28 41 -31 41 -2 0 -31 -37 -62 -81z"/>
<path d="M2990 2714 c0 -73 15 -83 35 -24 13 38 0 90 -22 90 -9 0 -13 -19 -13
-66z"/>
<path d="M2099 2749 c-13 -25 -4 -82 15 -98 20 -17 26 -3 26 61 0 44 -3 58
-15 58 -8 0 -19 -9 -26 -21z"/>
<path d="M3443 2478 c-6 -7 -47 -121 -92 -253 -45 -132 -92 -267 -103 -301
l-21 -61 71 -94 c39 -53 79 -115 87 -139 19 -53 44 -215 165 -1078 10 -74 21
-136 23 -139 3 -3 34 9 69 25 107 50 132 55 252 49 88 -4 139 -13 246 -45 74
-21 145 -44 157 -50 33 -18 43 -15 43 16 0 47 -56 320 -89 434 -46 160 -158
457 -231 613 -16 33 -49 104 -74 158 -83 177 -219 425 -399 727 -83 139 -93
152 -104 138z"/>
<path d="M1653 2458 c-17 -22 -156 -256 -248 -417 -100 -176 -291 -563 -359
-726 -96 -232 -184 -501 -217 -657 -32 -156 -47 -268 -37 -274 5 -3 24 1 42
10 39 18 192 62 291 83 102 21 244 13 315 -17 30 -13 67 -32 83 -42 21 -15 28
-16 31 -6 7 22 25 145 47 313 11 88 27 196 35 240 7 44 25 166 39 270 54 401
53 396 158 539 l48 65 -42 133 c-23 73 -67 215 -98 316 -30 100 -61 182 -67
182 -6 0 -16 -6 -21 -12z"/>
<path d="M2493 1668 c-11 -13 -60 -76 -108 -141 -109 -148 -96 -95 -174 -687
-17 -129 -40 -293 -51 -365 -10 -72 -22 -161 -26 -199 l-7 -69 144 6 c79 4
175 12 213 17 53 8 103 7 207 -5 154 -17 309 -20 309 -6 0 13 -56 416 -75 536
-19 126 -64 428 -76 520 -5 39 -12 85 -15 102 -3 21 -44 86 -110 173 l-104
140 -53 0 c-43 0 -58 -5 -74 -22z"/>
</g>
</svg>
