<?xml version="1.0" standalone="no"?>
<!DOCTYPE svg PUBLIC "-//W3C//DTD SVG 20010904//EN"
 "http://www.w3.org/TR/2001/REC-SVG-20010904/DTD/svg10.dtd">
<svg version="1.0" xmlns="http://www.w3.org/2000/svg"
 width="36pt" height="36pt" viewBox="0 0 512.000000 512.000000"
 preserveAspectRatio="xMidYMid meet">

<g transform="translate(0.000000,512.000000) scale(0.100000,-0.100000)"
fill="#ffffff" stroke="none">
<path d="M2398 5057 c-162 -68 -271 -215 -285 -387 -19 -232 148 -442 384
-481 179 -29 376 69 462 231 123 231 35 508 -199 623 -60 30 -72 32 -185 35
-107 2 -126 0 -177 -21z"/>
<path d="M2212 4033 c-47 -23 -120 -116 -327 -418 -95 -138 -192 -276 -239
-338 -72 -98 -88 -151 -65 -228 14 -45 54 -85 169 -168 137 -100 310 -224 349
-252 43 -30 42 -11 7 -289 -14 -113 -30 -252 -36 -310 -10 -99 -73 -615 -106
-875 -8 -66 -28 -237 -45 -380 -16 -143 -35 -303 -41 -355 -18 -147 -16 -197
14 -255 32 -61 59 -87 118 -114 50 -23 132 -27 194 -10 47 13 118 77 142 127
9 20 23 84 30 142 7 58 18 141 24 185 11 78 23 185 40 355 4 47 17 153 28 235
12 83 28 213 37 290 47 422 49 433 57 385 14 -82 83 -611 128 -985 49 -405 70
-559 82 -588 38 -97 128 -157 235 -157 105 0 184 46 228 133 28 56 32 129 15
247 -5 36 -23 178 -39 315 -17 138 -40 315 -51 395 -20 145 -44 337 -100 800
-16 135 -38 301 -49 370 -10 69 -22 159 -26 200 l-7 75 144 115 c78 63 145
117 148 120 3 3 50 43 106 87 56 45 113 95 127 112 28 34 43 101 32 150 -7 35
9 10 -255 386 -269 384 -343 479 -384 499 -51 24 -635 23 -684 -1z m-52 -833
c0 -81 -4 -141 -10 -145 -11 -7 -140 81 -140 96 0 15 134 197 143 192 4 -2 7
-67 7 -143z m888 32 l63 -87 -38 -33 c-21 -19 -55 -47 -75 -64 l-38 -30 1 169
c0 134 3 164 12 150 7 -10 40 -57 75 -105z"/>
<path d="M3600 3038 c-7 -25 -25 -62 -42 -82 -16 -20 -135 -122 -264 -227
-215 -176 -234 -194 -234 -223 0 -30 13 -138 45 -377 8 -63 28 -225 45 -360
16 -134 50 -401 75 -594 25 -192 55 -429 66 -525 27 -236 22 -220 68 -220 116
0 354 68 406 116 14 13 31 24 36 24 6 0 33 22 61 50 28 28 57 50 65 50 8 0 26
6 42 14 42 22 185 46 275 46 153 -1 373 -43 541 -104 38 -14 71 -23 74 -20 7
6 -16 145 -43 259 -89 379 -281 810 -593 1330 -134 223 -535 811 -593 869 -19
19 -19 19 -30 -26z"/>
<path d="M1438 2988 c-319 -431 -618 -907 -807 -1285 -97 -194 -233 -511 -245
-571 -1 -9 -6 -24 -9 -32 -3 -8 -18 -58 -32 -110 -14 -52 -31 -108 -37 -125
-6 -16 -14 -52 -18 -80 -4 -27 -13 -78 -20 -112 -8 -34 -11 -65 -8 -69 4 -3
38 6 76 20 184 70 435 113 607 103 148 -9 241 -43 335 -123 72 -61 127 -92
225 -125 93 -31 280 -58 295 -43 5 5 19 99 30 209 11 110 27 250 35 310 8 61
26 209 40 330 14 121 32 261 40 310 8 50 24 176 35 280 12 105 32 278 46 385
13 107 24 211 24 231 0 65 -24 103 -97 155 -164 116 -370 274 -394 300 -14 16
-32 45 -39 64 -7 19 -16 39 -21 43 -4 5 -31 -24 -61 -65z"/>
<path d="M2550 1167 c0 -7 -41 -365 -55 -482 -9 -71 -19 -155 -22 -185 l-5
-55 91 0 c56 0 92 4 95 11 2 6 -4 76 -15 155 -10 79 -28 223 -39 319 -25 219
-29 240 -40 240 -6 0 -10 -1 -10 -3z"/>
</g>
</svg>
