<?xml version="1.0" standalone="no"?>
<!DOCTYPE svg PUBLIC "-//W3C//DTD SVG 20010904//EN"
 "http://www.w3.org/TR/2001/REC-SVG-20010904/DTD/svg10.dtd">
<svg version="1.0" xmlns="http://www.w3.org/2000/svg"
 width="512.000000pt" height="512.000000pt" viewBox="0 0 512.000000 512.000000"
 preserveAspectRatio="xMidYMid meet">

<g transform="translate(0.000000,512.000000) scale(0.100000,-0.100000)"
fill="#10BA35" stroke="none">
<path d="M1082 5107 c-48 -18 -99 -63 -125 -110 l-22 -42 0 -2395 0 -2395 22
-42 c27 -51 82 -96 132 -112 55 -16 2887 -16 2942 0 50 16 105 61 132 112 l22
42 0 2395 0 2395 -22 42 c-27 51 -82 96 -132 112 -27 8 -229 11 -683 11 -638
0 -646 0 -672 -21 -19 -15 -26 -30 -26 -54 0 -24 7 -39 26 -54 26 -21 34 -21
671 -21 l644 0 25 -25 24 -24 -2 -2366 -3 -2367 -24 -19 c-23 -19 -60 -19
-1453 -19 l-1429 0 -24 25 -25 24 0 2361 0 2361 25 24 24 25 646 0 646 0 24
25 c32 31 32 69 0 100 l-24 25 -653 -1 c-476 0 -662 -4 -686 -12z"/>
<path d="M1269 4792 l-24 -20 0 -2212 0 -2212 24 -19 c22 -18 43 -19 336 -19
291 0 314 1 336 19 32 26 32 86 0 112 -20 16 -41 19 -132 19 l-109 0 0 80 0
80 390 0 390 0 0 -80 0 -80 -139 0 c-77 0 -147 -3 -156 -6 -10 -4 -23 -21 -30
-37 -16 -39 -3 -80 31 -96 18 -8 250 -11 833 -11 781 0 810 1 832 19 l24 19 3
1255 2 1254 -21 27 c-23 30 -72 35 -105 12 -16 -12 -20 -31 -24 -138 l-5 -123
-77 -3 -78 -3 0 396 0 396 78 -3 77 -3 3 -142 c2 -140 3 -142 29 -162 32 -26
64 -27 94 -2 l24 19 0 822 0 822 -24 20 c-24 18 -38 19 -305 16 -246 -3 -286
-6 -321 -22 -77 -35 -126 -77 -173 -149 -26 -40 -66 -85 -90 -102 l-44 -30
-336 -3 c-222 -2 -350 0 -374 8 -52 15 -91 51 -142 130 -44 68 -94 111 -171
146 -35 16 -75 19 -321 22 -267 3 -281 2 -305 -16z m281 -212 l0 -80 -80 0
-80 0 0 80 0 80 80 0 80 0 0 -80z m279 70 c19 -5 48 -22 64 -37 27 -26 77 -96
77 -108 0 -3 -61 -5 -135 -5 l-135 0 0 80 0 80 48 0 c26 0 63 -4 81 -10z
m1591 -70 l0 -80 -135 0 -136 0 30 43 c64 92 103 116 189 117 l52 0 0 -80z
m310 0 l0 -80 -80 0 -80 0 0 80 0 80 80 0 80 0 0 -80z m-2180 -620 l0 -390
-80 0 -80 0 0 390 0 390 80 0 80 0 0 -390z m930 0 l0 -390 -390 0 -390 0 0
390 0 390 390 0 390 0 0 -390z m940 0 l0 -390 -390 0 -390 0 0 390 0 390 390
0 390 0 0 -390z m310 0 l0 -390 -80 0 -80 0 0 390 0 390 80 0 80 0 0 -390z
m-2180 -935 l0 -396 -77 3 -78 3 -3 380 c-1 209 0 386 3 392 3 9 29 13 80 13
l75 0 0 -395z m1865 -465 l0 -855 -855 0 -855 0 -3 845 c-1 465 0 851 3 858 3
10 180 12 857 10 l853 -3 0 -855z m-1865 -470 l0 -391 -77 3 -78 3 -3 388 -2
387 80 0 80 0 0 -390z m2178 3 l-3 -388 -77 -3 -78 -3 0 391 0 390 80 0 80 0
-2 -387z m-2178 -933 l0 -390 -80 0 -80 0 0 390 0 390 80 0 80 0 0 -390z m930
0 l0 -390 -390 0 -390 0 0 390 0 390 390 0 390 0 0 -390z m940 0 l0 -390 -390
0 -390 0 0 390 0 390 390 0 390 0 0 -390z m310 0 l0 -390 -80 0 -80 0 0 390 0
390 80 0 80 0 0 -390z m-2180 -620 l0 -80 -80 0 -80 0 0 80 0 80 80 0 80 0 0
-80z m1870 0 l0 -80 -390 0 -390 0 0 80 0 80 390 0 390 0 0 -80z m310 0 l0
-80 -80 0 -80 0 0 80 0 80 80 0 80 0 0 -80z"/>
<path d="M1817 2612 c-24 -27 -22 -85 4 -108 18 -16 40 -20 156 -22 153 -4
196 1 224 29 25 25 24 74 -1 99 -18 18 -33 20 -193 20 -156 0 -176 -2 -190
-18z"/>
<path d="M2370 2610 c-22 -22 -26 -60 -10 -90 16 -30 66 -40 200 -40 134 0
184 10 200 40 16 30 12 68 -10 90 -18 18 -33 20 -190 20 -157 0 -172 -2 -190
-20z"/>
<path d="M2920 2610 c-25 -25 -26 -74 -1 -99 28 -28 71 -33 224 -29 156 4 177
13 177 78 0 66 -13 70 -208 70 -159 0 -174 -2 -192 -20z"/>
<path d="M2355 4785 c-14 -13 -25 -36 -25 -50 0 -14 11 -37 25 -50 24 -25 26
-25 205 -25 179 0 181 0 205 25 14 13 25 36 25 50 0 14 -11 37 -25 50 -24 25
-26 25 -205 25 -179 0 -181 0 -205 -25z"/>
</g>
</svg>
