<?xml version="1.0" standalone="no"?>
<!DOCTYPE svg PUBLIC "-//W3C//DTD SVG 20010904//EN"
 "http://www.w3.org/TR/2001/REC-SVG-20010904/DTD/svg10.dtd">
<svg version="1.0" xmlns="http://www.w3.org/2000/svg"
 width="512.000000pt" height="512.000000pt" viewBox="0 0 512.000000 512.000000"
 preserveAspectRatio="xMidYMid meet">

<g transform="translate(0.000000,512.000000) scale(0.100000,-0.100000)"
fill="#000000" stroke="none">
<path d="M2420 4064 c-181 -38 -367 -186 -448 -354 -24 -49 -48 -121 -58 -169
-54 -271 88 -565 336 -695 93 -49 135 -63 230 -76 301 -41 605 152 703 448 55
166 44 328 -35 491 -57 120 -178 241 -298 300 -139 68 -284 87 -430 55z"/>
<path d="M1963 2715 c-302 -102 -523 -288 -639 -541 -66 -143 -77 -216 -78
-514 -1 -296 0 -302 69 -378 44 -49 93 -69 300 -122 567 -145 1167 -157 1745
-35 142 30 347 88 389 109 36 19 89 79 110 125 14 31 16 77 15 301 0 237 -3
274 -22 353 -82 333 -341 590 -712 708 -102 32 -103 33 -134 14 -80 -47 -169
-86 -246 -106 -118 -31 -282 -31 -399 0 -78 20 -194 71 -245 106 -28 21 -37
19 -153 -20z"/>
</g>
</svg>
