<?xml version="1.0" standalone="no"?>
<!DOCTYPE svg PUBLIC "-//W3C//DTD SVG 20010904//EN"
 "http://www.w3.org/TR/2001/REC-SVG-20010904/DTD/svg10.dtd">
<svg version="1.0" xmlns="http://www.w3.org/2000/svg"
 width="36pt" height="36pt" viewBox="0 0 512.000000 512.000000"
 preserveAspectRatio="xMidYMid meet">

<g transform="translate(0.000000,512.000000) scale(0.100000,-0.100000)"
fill="#ffffff" stroke="none">
<path d="M1345 5022 c-44 -21 -70 -47 -104 -104 l-22 -37 -292 -3 c-288 -3
-293 -3 -342 -28 -64 -32 -124 -92 -155 -155 -19 -40 -24 -66 -24 -135 -1 -74
3 -92 27 -137 31 -60 83 -115 130 -139 17 -9 33 -18 35 -19 8 -7 -229 -464
-260 -503 -19 -24 -68 -68 -109 -98 -114 -85 -157 -164 -146 -270 7 -66 23
-96 113 -216 91 -119 124 -151 194 -186 47 -23 68 -27 140 -27 117 0 166 24
299 148 57 54 109 97 116 97 16 0 69 -119 100 -227 14 -47 43 -210 65 -362 22
-152 49 -318 61 -368 15 -63 19 -97 12 -105 -6 -7 -110 -138 -232 -291 -122
-152 -235 -298 -251 -324 -47 -74 -68 -155 -95 -373 -37 -305 -30 -277 -75
-284 -50 -8 -106 -57 -121 -105 -6 -21 -9 -86 -7 -153 3 -126 11 -147 72 -192
26 -20 40 -21 326 -21 286 0 300 1 326 21 64 47 69 63 69 214 l0 138 -32 39
-31 39 24 120 c13 65 31 136 40 156 14 30 60 70 231 199 118 88 217 159 219
156 16 -15 27 -205 31 -538 l5 -386 -36 -7 c-48 -9 -103 -59 -117 -105 -6 -21
-9 -86 -7 -153 3 -126 11 -147 72 -192 26 -20 40 -21 326 -21 286 0 300 1 326
21 61 45 69 66 72 192 4 138 -6 179 -53 221 -19 17 -35 33 -35 36 0 3 11 23
25 43 33 48 65 152 65 211 0 64 -14 110 -68 226 -52 113 -64 194 -40 275 l14
45 119 7 c143 8 224 24 387 78 l122 39 45 -42 c55 -52 113 -91 206 -142 136
-74 202 -146 237 -257 25 -81 23 -117 -14 -309 l-31 -167 -40 -5 c-44 -6 -80
-29 -111 -71 -19 -25 -21 -42 -21 -166 0 -151 5 -167 69 -214 26 -20 40 -21
326 -21 286 0 300 1 326 21 62 46 69 64 72 207 l4 131 53 57 c81 88 100 135
99 244 0 87 -3 96 -63 244 -71 175 -91 245 -91 313 0 27 27 169 60 318 63 286
84 404 95 538 l7 84 40 -39 c21 -21 56 -72 76 -112 34 -70 37 -81 37 -165 0
-86 -4 -102 -73 -307 -52 -157 -74 -237 -78 -291 -22 -262 137 -497 396 -584
39 -13 85 -19 155 -19 92 0 106 3 167 32 93 44 151 100 196 191 35 72 37 81
37 171 0 87 -3 102 -32 164 -21 45 -52 88 -89 124 l-57 55 21 51 c108 260 170
593 159 842 -12 259 -103 465 -286 645 -188 187 -398 274 -661 274 -195 0
-306 -33 -464 -138 l-94 -64 -69 20 c-101 28 -262 34 -418 14 -71 -9 -138 -18
-149 -19 -14 -2 -21 9 -32 50 -31 119 -108 213 -218 264 -75 35 -174 48 -230
29 -45 -14 -48 -11 -101 95 -61 123 -67 160 -75 480 -8 323 -14 356 -88 500
-55 107 -192 239 -302 293 -47 23 -118 50 -158 60 -72 18 -72 19 -98 71 -48
96 -157 137 -249 93z m105 -164 c5 -13 23 -129 41 -258 28 -206 35 -238 55
-260 54 -59 54 -61 54 -583 0 -530 1 -546 61 -657 61 -114 156 -189 309 -241
76 -26 106 -42 149 -81 101 -92 211 -133 356 -133 92 0 105 3 167 32 79 37
152 107 188 178 14 28 29 53 33 56 27 19 224 44 357 44 134 0 152 -2 234 -29
204 -67 359 -221 433 -431 26 -75 28 -89 27 -240 -1 -181 -8 -228 -90 -594
-30 -135 -58 -278 -61 -317 -8 -105 11 -190 88 -386 90 -229 90 -260 1 -350
l-46 -48 -173 0 c-95 0 -173 3 -173 8 0 4 13 75 30 157 33 169 36 232 15 323
-41 173 -138 286 -340 397 -176 96 -282 219 -335 390 -16 50 -24 106 -27 197
l-6 128 -80 0 -80 0 6 -137 c6 -153 26 -243 78 -345 17 -33 29 -61 27 -63 -9
-7 -200 -65 -246 -74 -29 -6 -90 -14 -136 -17 l-83 -7 14 64 c8 35 17 144 20
241 l5 178 -81 0 -81 0 0 -139 c0 -172 -17 -269 -75 -436 -67 -192 -63 -278
20 -452 74 -157 73 -197 -12 -327 l-55 -86 -98 0 -98 0 -5 393 c-5 414 -12
498 -62 742 -29 141 -90 348 -141 478 -20 50 -38 93 -39 95 -4 4 -128 -48
-138 -57 -4 -5 5 -41 21 -82 34 -84 92 -263 92 -281 0 -17 -54 48 -112 135
-100 148 -133 261 -188 647 -45 321 -69 423 -133 567 l-44 100 84 42 c93 46
169 110 208 176 30 52 55 143 55 202 l0 43 -80 0 -80 0 0 -38 c0 -58 -27 -126
-66 -166 -21 -22 -86 -62 -157 -97 -161 -81 -237 -132 -346 -234 -95 -89 -143
-113 -204 -100 -69 15 -99 38 -173 136 -89 118 -98 137 -90 183 6 30 19 45 76
87 130 94 167 145 316 441 l135 268 111 0 c133 0 175 11 232 61 55 48 76 93
87 183 8 64 17 84 95 216 48 80 94 153 102 163 21 23 41 21 52 -5z m-353 -180
c-30 -51 -57 -139 -57 -184 0 -46 -9 -63 -41 -79 -40 -21 -66 -19 -94 10 -21
20 -25 34 -25 80 l0 55 -81 0 -82 0 5 -80 c5 -90 1 -94 -65 -66 -96 40 -126
168 -60 247 46 54 67 58 306 59 l219 0 -25 -42z m719 -43 c102 -59 207 -197
244 -320 8 -25 15 -152 20 -330 6 -243 11 -301 27 -360 28 -98 68 -190 115
-260 37 -56 39 -62 29 -96 -27 -88 -6 -165 64 -234 56 -57 102 -75 189 -75
l56 0 0 80 0 80 -55 0 c-46 0 -60 4 -80 25 -33 32 -33 78 0 110 47 48 145 26
220 -50 101 -101 101 -229 0 -331 -87 -88 -202 -98 -341 -29 -136 66 -213 186
-222 346 l-5 89 -80 0 -80 0 6 -97 c3 -54 9 -109 13 -122 7 -24 6 -24 -39 8
-55 37 -104 105 -123 169 -11 35 -14 150 -14 532 0 529 -2 546 -57 626 -21 31
-30 64 -45 159 -25 171 -30 159 46 132 35 -13 85 -36 112 -52z m2454 -1539
c207 -56 368 -171 481 -344 114 -174 148 -363 116 -643 -19 -160 -71 -372
-124 -501 l-38 -92 -47 3 c-25 1 -66 -3 -90 -10 -57 -17 -139 -99 -156 -155
-28 -94 -8 -169 63 -239 56 -57 102 -75 189 -75 l56 0 0 80 0 80 -55 0 c-46 0
-60 4 -80 25 -50 50 -15 135 56 135 123 0 239 -117 239 -240 0 -97 -81 -204
-173 -229 -71 -20 -158 -8 -243 34 -86 42 -144 102 -187 193 -28 60 -32 77
-32 157 0 86 4 101 75 310 74 220 74 220 74 330 1 90 -3 122 -22 177 -44 126
-124 226 -244 305 -38 24 -68 50 -68 58 0 8 -11 48 -24 90 l-24 76 21 -7 c131
-39 231 -100 326 -200 128 -135 188 -276 198 -466 l6 -108 78 0 79 0 0 74 c0
341 -193 651 -495 796 -85 41 -217 80 -272 80 -29 0 -45 11 -106 73 -40 39
-89 83 -110 97 -20 14 -35 29 -34 34 9 26 182 101 277 120 46 9 235 -2 290
-18z m-2937 -1213 c26 -41 86 -114 134 -164 74 -77 84 -92 72 -103 -8 -7 -97
-75 -199 -151 -102 -76 -202 -154 -223 -174 -58 -54 -83 -113 -113 -269 l-28
-142 -124 0 -123 0 6 33 c3 17 16 124 30 237 22 177 29 213 55 265 17 34 120
173 237 319 177 221 209 256 218 241 5 -10 31 -51 58 -92z m-293 -1243 l0 -80
-240 0 -240 0 0 80 0 80 240 0 240 0 0 -80z m1120 -320 l0 -80 -240 0 -240 0
0 80 0 80 240 0 240 0 0 -80z m1600 0 l0 -80 -240 0 -240 0 0 80 0 80 240 0
240 0 0 -80z"/>
<path d="M905 4055 c-50 -49 -15 -135 55 -135 41 0 80 39 80 80 0 41 -39 80
-80 80 -19 0 -40 -9 -55 -25z"/>
</g>
</svg>
