<?xml version="1.0" standalone="no"?>
<!DOCTYPE svg PUBLIC "-//W3C//DTD SVG 20010904//EN"
 "http://www.w3.org/TR/2001/REC-SVG-20010904/DTD/svg10.dtd">
<svg version="1.0" xmlns="http://www.w3.org/2000/svg"
 width="512.000000pt" height="512.000000pt" viewBox="0 0 512.000000 512.000000"
 preserveAspectRatio="xMidYMid meet">

<g transform="translate(0.000000,512.000000) scale(0.100000,-0.100000)"
fill="#F68315" stroke="none">
<path d="M2746 5105 c-220 -42 -431 -185 -560 -379 -47 -71 -99 -191 -111
-257 l-7 -37 -77 5 c-82 6 -183 -7 -264 -33 -27 -9 -50 -14 -51 -13 -2 2 0 73
3 157 3 84 3 165 -1 180 -19 71 -92 86 -186 38 l-53 -27 -52 19 c-121 45 -158
38 -242 -48 l-49 -50 -69 0 c-39 0 -80 -6 -96 -14 -28 -15 -51 -53 -51 -87 0
-11 59 -131 131 -267 71 -136 132 -258 135 -272 4 -19 -9 -45 -54 -107 -111
-153 -195 -345 -228 -520 -12 -65 -15 -123 -11 -223 4 -116 9 -148 35 -230 62
-188 189 -351 354 -454 l77 -48 -20 -51 c-11 -29 -88 -221 -170 -428 l-149
-376 -58 1 c-68 1 -132 -31 -162 -79 -10 -17 -91 -212 -179 -435 -169 -424
-177 -453 -147 -523 21 -50 65 -84 157 -121 110 -44 139 -50 190 -36 65 18
109 69 152 178 20 50 37 103 37 115 0 57 -86 90 -124 49 -9 -11 -31 -56 -50
-102 -18 -45 -40 -87 -49 -91 -11 -6 -38 -1 -84 17 -81 32 -93 41 -93 65 0 31
211 549 224 549 13 0 168 -60 179 -70 4 -4 -1 -30 -13 -59 -23 -59 -19 -94 13
-116 31 -22 70 -18 94 8 28 30 163 377 163 419 -1 48 -32 110 -74 145 l-37 30
166 419 c92 230 170 423 174 427 5 5 46 1 91 -9 130 -26 297 -16 420 25 129
43 237 110 336 206 l81 81 44 -39 c24 -21 81 -61 127 -89 79 -49 82 -52 82
-88 0 -36 -2 -38 -37 -45 -21 -3 -99 -10 -173 -14 -83 -5 -168 -17 -220 -30
-151 -40 -361 -154 -420 -228 -23 -30 -21 -65 7 -95 28 -32 73 -22 144 30 37
27 101 65 144 86 76 37 243 86 293 86 25 0 24 -3 -26 -53 -53 -53 -70 -94 -58
-140 3 -14 60 -98 126 -188 66 -89 120 -165 120 -169 0 -3 -56 -61 -125 -130
-142 -142 -157 -169 -129 -239 26 -65 51 -75 192 -81 l122 -5 -250 -250 -250
-250 0 247 c0 135 -3 254 -6 263 -10 24 -60 46 -89 39 -44 -11 -55 -39 -55
-141 l0 -93 -203 0 -203 0 23 218 c27 257 47 350 102 468 23 48 41 97 41 109
0 31 -40 65 -78 65 -26 0 -38 -8 -62 -41 -38 -52 -86 -177 -111 -288 -18 -80
-169 -1432 -169 -1512 0 -92 125 -107 144 -17 3 13 24 199 46 413 22 215 43
400 46 413 4 22 5 22 214 22 l210 0 0 -430 0 -431 25 -24 c31 -32 69 -32 100
0 25 24 25 27 25 197 l0 173 388 99 c213 55 396 102 407 104 11 2 -91 -108
-227 -244 -219 -220 -248 -253 -248 -281 0 -22 8 -38 26 -52 56 -44 57 -43
376 277 l298 298 0 52 c0 43 -5 57 -31 86 -18 21 -44 38 -62 41 -23 5 -155
-26 -460 -104 -235 -61 -430 -111 -434 -111 -5 0 140 148 320 328 312 312 329
331 334 372 7 52 -14 98 -57 123 -22 13 -54 17 -151 17 l-124 0 95 95 c87 88
97 95 126 89 58 -11 96 16 191 137 48 62 97 123 108 137 l21 24 103 -132 c134
-171 172 -194 248 -152 37 19 339 416 349 458 12 47 -5 87 -58 141 -60 61 -56
63 61 38 157 -33 312 -114 431 -224 47 -44 52 -53 40 -65 -8 -8 -247 -173
-530 -367 -283 -193 -557 -381 -608 -416 -123 -86 -136 -111 -82 -165 24 -23
36 -29 56 -24 14 4 305 198 646 432 474 325 623 423 630 412 68 -101 105 -235
134 -488 13 -118 24 -227 24 -242 l0 -28 -200 0 -200 0 0 89 c0 49 -3 97 -6
106 -10 24 -60 46 -89 39 -56 -14 -55 3 -55 -647 l0 -598 25 -24 c31 -32 69
-32 100 0 l25 24 0 431 0 430 210 0 209 0 5 -32 c3 -18 24 -204 46 -413 22
-209 43 -392 46 -407 6 -32 38 -58 70 -58 37 0 74 37 74 74 0 32 -128 1224
-151 1411 -44 355 -258 656 -574 810 -145 71 -237 95 -410 105 -77 5 -157 12
-177 16 -36 6 -38 8 -38 44 0 36 3 40 63 73 256 145 436 442 437 722 l0 60 83
0 c67 0 92 5 139 27 198 92 268 339 147 521 -27 41 -71 82 -132 122 -11 7 -14
20 -10 43 5 30 8 33 33 27 46 -10 126 -8 149 5 34 17 61 70 61 116 0 108 -110
375 -209 505 -164 215 -386 348 -687 410 -134 28 -557 36 -678 14z m549 -146
c196 -24 378 -89 508 -183 71 -50 168 -149 216 -219 47 -68 106 -199 130 -286
l20 -73 -37 5 c-133 21 -139 21 -165 -5 -19 -19 -25 -39 -30 -93 -12 -128 -74
-214 -185 -255 -88 -33 -80 -45 -101 144 -29 257 -120 461 -264 591 -162 147
-395 187 -583 99 -99 -47 -130 -102 -84 -152 29 -31 66 -28 140 11 58 30 71
32 159 32 88 0 102 -3 164 -32 71 -34 187 -138 187 -168 0 -13 -42 -15 -294
-15 l-295 0 -20 -26 c-32 -41 -27 -69 22 -116 1 -1 153 -5 337 -8 l335 -5 16
-60 c9 -33 19 -77 23 -98 l7 -37 -658 2 -658 3 0 95 0 95 160 5 c88 3 168 10
178 14 40 19 49 79 17 114 -20 21 -29 22 -175 22 -180 0 -170 -9 -130 117 76
241 278 423 530 478 75 17 406 19 530 4z m-1919 -364 c34 -19 69 -35 77 -35 9
0 30 12 47 27 l32 26 -7 -194 c-4 -107 -10 -197 -14 -201 -4 -4 -63 -20 -132
-36 l-126 -28 -91 173 c-51 95 -92 175 -92 177 0 2 13 -1 28 -6 43 -16 77 -3
103 39 33 56 70 93 92 93 11 0 48 -16 83 -35z m669 -317 c4 -4 2 -21 -4 -39
-6 -18 -11 -73 -11 -124 l0 -92 -58 -16 c-217 -60 -323 -297 -224 -499 38 -77
92 -130 171 -167 46 -21 71 -26 138 -26 l83 0 0 -46 c0 -124 56 -321 119 -421
l30 -47 -39 -48 c-89 -107 -241 -204 -375 -238 -85 -22 -235 -19 -331 5 -278
70 -475 271 -530 540 -21 106 -15 271 15 385 21 79 139 332 164 354 11 8 24 1
59 -33 133 -127 347 -87 424 79 30 63 31 131 4 243 -11 46 -17 95 -14 109 8
30 63 57 157 78 62 14 209 16 222 3z m-501 -271 c13 -68 -1 -116 -43 -144 -39
-27 -80 -29 -121 -8 -34 18 -48 40 -66 107 -12 48 -12 48 14 55 97 24 179 41
192 40 9 -1 18 -20 24 -50z m574 -143 c22 -6 22 -8 22 -200 l0 -193 -35 -7
c-168 -31 -298 139 -224 293 41 84 145 131 237 107z m1402 -60 c3 -27 13 -63
23 -78 24 -37 78 -59 123 -50 l36 7 -4 -269 c-4 -259 -5 -272 -31 -349 -63
-190 -185 -330 -362 -416 -112 -54 -191 -72 -310 -72 -270 1 -498 140 -624
383 -71 136 -74 153 -78 548 l-5 352 614 -2 613 -3 5 -51z m526 26 c41 -26 84
-109 84 -165 0 -124 -122 -224 -244 -201 l-36 7 0 128 0 128 48 31 c26 16 60
44 76 61 17 17 32 31 34 31 3 0 19 -9 38 -20z m-1134 -1400 c78 -9 179 -4 272
13 7 1 12 -22 14 -62 l3 -65 -103 -103 -103 -103 -102 102 -103 103 0 68 c0
59 2 68 16 63 8 -3 56 -11 106 -16z m-148 -299 c91 -91 126 -133 120 -142 -29
-50 -188 -239 -194 -232 -4 4 -60 80 -125 167 l-117 159 88 88 c49 49 91 89
94 89 3 0 63 -58 134 -129z m690 40 l88 -89 -125 -166 -125 -167 -74 93 c-41
51 -85 108 -98 126 l-24 33 129 129 c71 72 132 130 135 130 3 0 45 -40 94 -89z
m-2461 -762 c43 -18 81 -38 84 -46 3 -7 -5 -38 -17 -69 -18 -43 -26 -54 -39
-49 -9 4 -45 18 -80 32 -108 41 -103 36 -80 90 21 49 37 73 48 73 3 0 41 -14
84 -31z"/>
<path d="M1502 3393 c-7 -3 -19 -17 -27 -33 l-14 -28 -46 17 c-41 14 -48 14
-73 1 -60 -34 -52 -107 15 -137 21 -10 40 -18 41 -20 2 -1 -1 -18 -8 -38 -9
-28 -16 -35 -29 -30 -59 25 -71 26 -98 13 -32 -15 -49 -54 -39 -92 5 -20 19
-33 51 -47 41 -18 44 -21 35 -45 -16 -40 -12 -89 8 -107 36 -33 122 -12 122
29 0 6 6 18 13 28 12 17 16 17 50 2 20 -8 37 -18 37 -21 0 -3 -11 -33 -25 -67
-14 -34 -25 -74 -25 -90 0 -58 73 -89 118 -50 11 9 48 89 83 177 83 214 72
197 114 179 50 -20 91 -18 115 8 42 45 18 103 -53 129 -34 12 -35 15 -34 57 2
35 -3 47 -22 63 -41 34 -107 17 -123 -32 -4 -11 -11 -10 -44 2 -37 14 -39 17
-36 53 6 62 -48 102 -106 79z m93 -275 c28 -12 31 -25 14 -62 -12 -24 -13 -25
-47 -10 -47 19 -47 19 -32 54 14 33 26 36 65 18z"/>
<path d="M2552 3647 c-39 -42 -25 -119 25 -138 77 -29 138 77 78 136 -31 32
-74 33 -103 2z"/>
<path d="M2899 3652 c-20 -17 -25 -39 -45 -198 -40 -311 -39 -314 106 -314 83
0 93 2 115 25 14 13 25 36 25 50 0 36 -42 75 -80 75 -36 0 -36 4 -15 160 20
145 19 176 -5 200 -25 25 -71 26 -101 2z"/>
<path d="M3331 3644 c-52 -66 7 -163 82 -135 32 12 47 39 47 84 0 70 -87 105
-129 51z"/>
<path d="M2770 2997 c-32 -16 -47 -58 -34 -94 14 -41 106 -100 186 -119 56
-14 77 -15 125 -5 152 30 248 126 198 198 -30 43 -76 38 -138 -13 -36 -30 -98
-47 -143 -38 -19 3 -60 24 -92 45 -63 43 -66 44 -102 26z"/>
<path d="M3480 1062 c-154 -106 -155 -108 -158 -148 -4 -48 22 -77 67 -77 31
0 334 200 345 228 21 55 -12 105 -66 105 -25 -1 -71 -27 -188 -108z"/>
<path d="M3671 713 c-21 -8 -825 -584 -833 -597 -4 -6 -8 -25 -8 -43 0 -39 32
-73 69 -73 18 0 152 90 426 285 220 157 410 297 423 311 12 14 22 34 22 44 0
39 -64 86 -99 73z"/>
</g>
</svg>
