<?xml version="1.0" standalone="no"?>
<!DOCTYPE svg PUBLIC "-//W3C//DTD SVG 20010904//EN"
 "http://www.w3.org/TR/2001/REC-SVG-20010904/DTD/svg10.dtd">
<svg version="1.0" xmlns="http://www.w3.org/2000/svg"
 width="512.000000pt" height="512.000000pt" viewBox="0 0 512.000000 512.000000"
 preserveAspectRatio="xMidYMid meet">

<g transform="translate(0.000000,512.000000) scale(0.100000,-0.100000)"
fill="#B9BAC5" stroke="none">
<path d="M845 5109 c-355 -50 -650 -279 -773 -599 -167 -436 -32 -976 343
-1369 231 -242 493 -393 795 -458 120 -26 383 -25 495 1 113 26 234 77 320
134 l73 49 159 -159 158 -158 -430 -430 -431 -431 -43 16 c-60 21 -130 19
-198 -6 -55 -20 -92 -55 -671 -633 -337 -336 -620 -624 -629 -640 -29 -56 -15
-79 160 -253 162 -162 191 -182 239 -168 29 9 214 190 235 229 33 64 -13 139
-88 139 -37 0 -47 -6 -107 -67 l-67 -66 -72 72 -73 73 447 447 448 448 72 -72
73 -72 -125 -126 c-115 -117 -125 -130 -125 -164 0 -55 43 -96 101 -96 42 0
45 2 285 241 281 280 298 304 299 419 0 41 -3 89 -8 105 -7 29 5 43 422 459
l430 430 93 -90 c52 -50 106 -94 121 -98 66 -16 137 55 121 121 -4 15 -48 69
-98 121 l-90 93 158 158 158 158 73 -49 c86 -57 207 -108 320 -134 112 -26
375 -27 495 -1 540 117 1011 558 1160 1088 222 791 -333 1449 -1125 1334 -423
-61 -824 -331 -1065 -715 -157 -250 -227 -503 -217 -780 8 -214 55 -366 161
-524 25 -38 46 -71 46 -75 0 -3 -70 -76 -155 -161 l-155 -155 -155 155 c-85
85 -155 158 -155 161 0 4 21 37 46 75 106 158 153 310 161 524 8 220 -31 408
-127 615 -184 398 -568 729 -981 845 -157 44 -358 60 -504 39z m375 -216 c91
-19 224 -65 304 -105 l59 -30 -96 -96 -97 -97 -178 178 -177 178 55 -6 c30 -3
89 -13 130 -22z m2687 -150 l-177 -178 -95 96 -96 95 98 47 c137 65 294 107
428 116 13 1 -40 -59 -158 -176z m-3074 89 l57 -57 -103 -103 -102 -102 -94
94 -93 94 48 33 c45 31 195 98 219 99 6 0 36 -26 68 -58z m3612 25 c44 -18
102 -47 129 -66 l48 -33 -93 -94 -94 -94 -102 102 -103 103 57 57 c32 32 62
58 68 58 5 0 46 -15 90 -33z m-2579 -322 l108 -106 -112 -112 -112 -112 -110
110 -110 110 107 107 c59 60 111 108 115 108 3 0 55 -47 114 -105z m1617 -3
l107 -107 -110 -110 -110 -110 -112 112 -112 112 108 106 c59 58 111 105 114
105 4 0 56 -48 115 -108z m-2343 -7 l105 -105 -103 -102 -102 -103 -107 107
-108 108 100 100 c55 55 102 100 105 100 3 0 52 -47 110 -105z m3055 5 l100
-100 -108 -108 -107 -107 -102 103 -103 102 105 105 c58 58 107 105 110 105 3
0 50 -45 105 -100z m-3740 -10 l90 -90 -173 -173 -172 -172 0 51 c0 79 27 218
59 300 28 72 86 174 100 174 3 0 47 -41 96 -90z m4345 40 c67 -104 120 -292
120 -424 l0 -51 -172 172 -173 173 90 90 c49 49 93 90 96 90 4 0 21 -23 39
-50z m-3910 -485 c0 -6 -45 -55 -100 -110 l-100 -100 -107 108 -108 107 105
105 105 105 102 -102 c57 -57 103 -107 103 -113z m3648 -102 l-108 -108 -100
100 c-55 55 -100 104 -100 110 0 5 46 56 102 112 l103 103 105 -105 105 -105
-107 -107z m-3036 -15 l-102 -103 -110 110 -110 110 102 102 103 103 110 -110
110 -110 -103 -102z m2328 7 l-110 -110 -102 103 -103 102 110 110 110 110
102 -102 103 -103 -110 -110z m-1701 218 c21 -43 51 -111 65 -152 l27 -75 -55
-55 -56 -56 -110 110 -110 110 97 97 c54 54 99 98 100 98 2 0 20 -35 42 -77z
m991 -228 l-110 -110 -55 56 -56 55 27 75 c14 41 44 110 66 153 l40 79 99 -99
99 -99 -110 -110z m-2677 -123 l107 -107 -95 -95 -94 -94 -40 84 c-22 47 -50
116 -62 153 l-22 68 49 50 c26 27 48 49 49 49 0 0 49 -48 108 -108z m4418 -59
c-12 -37 -40 -106 -62 -153 l-40 -84 -94 94 -95 95 107 107 108 108 49 -49 49
-50 -22 -68z m-3714 55 c57 -57 103 -107 103 -113 0 -6 -45 -55 -100 -110
l-100 -100 -110 110 -110 110 102 102 c57 57 105 103 108 103 2 0 51 -46 107
-102z m3041 -1 l102 -102 -110 -110 -110 -110 -100 100 c-55 55 -100 104 -100
110 0 10 200 215 210 215 3 0 51 -46 108 -103z m-2326 -229 l-102 -103 -110
110 -110 110 102 102 103 103 110 -110 110 -110 -103 -102z m1608 7 l-110
-110 -102 103 -103 102 110 110 110 110 102 -102 103 -103 -110 -110z m-1220
-95 c-7 -41 -25 -110 -40 -153 -28 -74 -94 -197 -108 -197 -4 0 -51 44 -104
97 l-98 98 177 178 178 177 3 -62 c2 -35 -2 -97 -8 -138z m873 -252 c-54 -54
-101 -98 -104 -98 -14 0 -72 102 -101 177 -37 96 -58 203 -58 301 l0 77 180
-180 180 -180 -97 -97z m-2326 220 c57 -57 103 -107 103 -113 0 -6 -46 -57
-103 -113 l-103 -103 -60 55 c-33 29 -82 79 -108 111 l-49 57 104 104 c57 57
106 104 109 104 2 0 51 -46 107 -102z m3742 -2 l104 -104 -49 -57 c-26 -32
-75 -82 -108 -111 l-60 -55 -103 103 c-57 56 -103 107 -103 113 0 10 200 215
210 215 3 0 52 -47 109 -104z m-3032 -8 c57 -57 103 -107 103 -113 0 -6 -45
-55 -100 -110 l-100 -100 -110 110 -110 110 102 102 c57 57 105 103 108 103 2
0 51 -46 107 -102z m2321 -1 l102 -102 -110 -110 -110 -110 -100 100 c-55 55
-100 104 -100 110 0 10 200 215 210 215 3 0 51 -46 108 -103z m-2593 -428
l180 -181 -65 7 c-129 13 -284 62 -422 131 l-71 36 94 94 c51 52 96 94 99 94
3 0 86 -81 185 -181z m2934 87 l94 -94 -71 -36 c-138 -69 -293 -118 -422 -131
l-65 -7 180 181 c99 100 182 181 185 181 3 0 48 -42 99 -94z m-2306 -14 l98
-99 -38 -25 c-58 -38 -111 -64 -183 -87 l-64 -21 -63 62 -63 63 102 102 c57
57 105 103 108 103 3 0 49 -44 103 -98z m1605 -5 l102 -102 -63 -63 -63 -62
-64 21 c-72 23 -125 49 -183 87 l-38 25 98 99 c54 54 100 98 103 98 3 0 51
-46 108 -103z m-1999 -1601 c56 -29 65 -93 22 -152 -60 -83 -58 -83 -139 -1
l-72 73 37 36 c65 61 99 71 152 44z"/>
<path d="M2966 2144 c-20 -21 -26 -37 -26 -69 0 -32 6 -48 26 -69 21 -20 37
-26 69 -26 59 0 95 36 95 95 0 59 -36 95 -95 95 -32 0 -48 -6 -69 -26z"/>
<path d="M3228 1924 c-15 -8 -35 -28 -44 -45 -28 -54 -12 -83 118 -215 l119
-122 -12 -46 c-15 -62 -6 -152 21 -207 15 -31 206 -228 628 -652 334 -335 620
-615 636 -624 56 -29 79 -15 253 160 175 174 189 197 160 253 -9 16 -292 304
-629 640 -579 578 -616 613 -671 633 -68 25 -138 27 -198 6 l-43 -15 -116 114
c-137 136 -165 151 -222 120z m520 -418 c15 -8 42 -29 59 -48 l33 -34 -73 -72
-73 -72 -30 32 c-65 70 -77 108 -50 157 26 47 84 63 134 37z m1060 -1193 l-73
-73 -447 447 -448 448 72 72 73 73 447 -447 448 -448 -72 -72z"/>
<path d="M2451 1790 c-105 -22 -194 -93 -240 -190 -24 -50 -26 -68 -29 -204
l-3 -148 -220 -357 c-143 -231 -225 -375 -236 -410 -54 -187 90 -371 290 -371
95 0 179 47 244 135 l22 30 1 -31 c0 -42 45 -127 86 -163 82 -72 178 -96 275
-68 94 28 174 110 198 204 l11 41 58 -57 c72 -72 133 -96 231 -89 162 12 280
146 268 308 -5 82 -6 85 -252 485 l-203 330 -5 140 c-3 78 -10 159 -17 181
-28 94 -129 198 -218 224 -50 15 -207 21 -261 10z m214 -210 c61 -29 75 -61
75 -169 l0 -91 -181 0 -181 0 4 99 c3 90 5 102 28 126 36 40 76 54 149 55 45
0 77 -6 106 -20z m330 -797 c231 -376 238 -392 187 -443 -35 -34 -83 -40 -119
-15 -12 9 -64 88 -115 178 l-92 162 -6 98 c-5 89 -8 99 -33 124 -38 38 -96 38
-134 0 l-28 -27 -5 -306 -5 -306 -28 -24 c-50 -43 -119 -21 -136 44 -7 21 -11
154 -11 319 l0 281 -31 26 c-42 35 -89 35 -130 -2 -30 -27 -31 -32 -36 -122
l-5 -95 -90 -163 c-50 -89 -102 -172 -116 -182 -53 -42 -135 -12 -148 54 -3
20 -1 44 6 57 7 13 103 171 214 352 l201 327 226 0 227 0 207 -337z"/>
<path d="M809 661 c-82 -82 28 -209 126 -145 36 23 49 74 31 117 -27 65 -106
79 -157 28z"/>
</g>
</svg>
