<?xml version="1.0" standalone="no"?>
<!DOCTYPE svg PUBLIC "-//W3C//DTD SVG 20010904//EN"
 "http://www.w3.org/TR/2001/REC-SVG-20010904/DTD/svg10.dtd">
<svg version="1.0" xmlns="http://www.w3.org/2000/svg"
 width="512.000000pt" height="512.000000pt" viewBox="0 0 512.000000 512.000000"
 preserveAspectRatio="xMidYMid meet">

<g transform="translate(0.000000,512.000000) scale(0.100000,-0.100000)"
fill="#F68315" stroke="none">
<path d="M3465 5106 c-208 -33 -391 -121 -518 -250 l-52 -53 -115 -6 c-128 -6
-217 -26 -237 -54 -22 -29 -12 -83 18 -105 26 -19 29 -19 102 -3 62 14 116 16
299 13 215 -4 226 -5 307 -33 161 -55 318 -188 395 -334 20 -38 36 -72 36 -75
0 -3 -344 -6 -765 -6 -523 0 -765 3 -765 10 0 36 103 191 169 255 32 30 41 47
41 72 0 42 -30 73 -71 73 -36 0 -117 -72 -171 -151 l-33 -48 -90 -1 c-95 0
-216 -24 -297 -59 l-46 -20 5 174 c5 151 4 177 -11 199 -32 50 -118 49 -197
-2 -31 -19 -32 -19 -75 -1 -112 50 -175 39 -252 -44 -42 -46 -43 -47 -106 -47
-35 0 -77 -5 -95 -11 -33 -12 -61 -53 -61 -90 0 -13 58 -134 130 -270 71 -135
134 -267 141 -292 11 -45 10 -47 -34 -119 -66 -105 -132 -249 -162 -353 -118
-407 13 -797 339 -1005 47 -30 85 -59 85 -65 0 -5 -75 -199 -167 -430 l-168
-420 -45 3 c-58 4 -121 -21 -158 -63 -19 -22 -80 -163 -190 -437 -88 -223
-164 -419 -167 -436 -10 -47 15 -120 51 -157 20 -19 69 -46 124 -68 132 -53
201 -49 268 15 47 45 363 840 363 912 0 59 -29 118 -74 148 l-34 23 170 430
c94 237 171 431 172 432 1 1 26 -5 56 -13 84 -22 237 -29 327 -14 143 23 281
85 401 180 l48 38 58 -48 c32 -26 84 -63 117 -81 70 -40 76 -64 20 -73 -21 -3
-43 -12 -50 -19 -7 -10 -47 -16 -123 -20 -453 -24 -829 -345 -923 -787 -26
-123 -90 -767 -79 -797 18 -53 101 -57 128 -5 7 15 17 63 20 107 11 127 -11
115 212 115 l194 0 0 -449 0 -450 26 -20 c35 -28 69 -26 99 4 25 24 25 26 26
217 l1 193 439 383 c253 220 441 377 443 370 3 -7 7 -69 10 -138 11 -212 15
-239 48 -276 36 -40 84 -52 133 -33 27 11 428 380 978 898 68 64 64 67 106
-64 21 -64 35 -143 50 -273 12 -100 21 -189 21 -197 0 -13 -28 -15 -184 -15
l-183 0 -5 52 c-4 38 -12 57 -28 70 -31 25 -72 23 -98 -5 -21 -23 -22 -30 -22
-294 l0 -270 -150 -143 c-136 -129 -150 -145 -150 -176 0 -43 30 -74 70 -74
24 0 50 19 127 90 l98 89 3 -194 2 -194 27 -20 c32 -26 64 -27 94 -2 l24 19 3
451 3 451 194 0 c107 0 195 -3 195 -7 0 -19 91 -851 96 -871 2 -12 13 -31 24
-42 44 -44 120 -7 120 57 0 88 -152 1417 -170 1488 -40 155 -142 335 -249 440
-55 53 -58 64 -45 158 l7 46 66 -51 c128 -99 277 -149 351 -118 41 17 87 71
101 119 13 45 10 61 -45 212 -42 118 -79 282 -102 454 -26 195 -24 562 4 818
33 293 27 477 -19 692 -24 116 -35 140 -65 154 -35 16 -48 14 -78 -10 -31 -24
-33 -56 -11 -139 24 -88 45 -272 45 -388 0 -59 -9 -191 -20 -294 -28 -268 -34
-476 -21 -671 20 -279 66 -518 137 -700 19 -49 31 -93 28 -98 -10 -17 -42 -9
-121 31 -200 100 -313 307 -346 630 -11 116 -14 124 -39 143 -34 25 -70 16
-101 -25 -19 -25 -19 -33 -8 -145 13 -137 47 -274 94 -376 32 -69 33 -74 21
-122 -7 -27 -16 -74 -20 -102 -3 -29 -8 -53 -10 -53 -3 0 -33 14 -67 32 -34
17 -98 43 -142 58 l-80 27 -22 59 c-12 33 -33 107 -48 166 l-27 107 32 46 c73
106 123 251 136 391 l7 71 52 6 c110 11 214 88 267 195 19 39 23 63 23 137 0
78 -4 97 -28 146 -15 31 -46 74 -70 96 l-42 39 3 161 c3 146 2 164 -17 201
-11 22 -29 47 -40 54 -11 8 -31 45 -46 83 -32 86 -89 184 -149 256 -43 51 -44
54 -24 62 29 11 105 -2 150 -24 76 -39 141 -14 141 53 0 40 -32 69 -110 98
-73 28 -199 30 -292 6 l-64 -17 -86 39 c-87 41 -167 65 -254 77 l-48 7 33 25
c99 76 278 131 453 139 237 12 404 -62 551 -247 48 -61 59 -69 89 -69 38 0 75
37 75 75 0 31 -73 127 -149 197 -181 167 -411 228 -696 184z m-2085 -566 c58
-37 86 -38 122 -3 l29 27 -7 -194 c-4 -107 -10 -199 -15 -204 -4 -5 -54 -19
-111 -32 -57 -13 -113 -26 -125 -29 -19 -4 -31 13 -112 169 -50 96 -91 176
-91 179 0 3 13 0 28 -5 44 -17 76 -3 107 44 48 75 66 90 99 84 16 -4 51 -20
76 -36z m640 -289 c0 -24 -24 -68 -55 -102 -18 -21 -38 -55 -44 -76 -14 -48
-14 -237 -1 -282 9 -31 7 -36 -38 -80 -106 -103 -135 -248 -78 -386 23 -54
110 -140 168 -165 28 -12 74 -24 103 -27 l52 -6 6 -86 c7 -104 35 -201 88
-299 21 -41 37 -78 34 -83 -13 -19 -136 -100 -197 -129 -230 -107 -523 -66
-740 105 -108 85 -195 220 -234 365 -25 93 -23 289 4 390 26 99 74 222 113
289 l31 53 26 -25 c95 -91 262 -88 360 6 80 76 96 157 62 317 -12 59 -20 115
-17 122 6 16 132 72 210 93 60 16 147 19 147 6z m1780 -320 c0 -99 -3 -120
-16 -125 -9 -3 -395 -6 -858 -6 -642 0 -845 3 -854 12 -13 13 -18 219 -5 231
3 4 395 7 870 7 l863 0 0 -119z m-2259 37 c26 -99 -12 -167 -99 -176 -44 -4
-53 -1 -81 24 -24 22 -36 45 -46 86 l-13 57 97 21 c53 12 101 23 106 25 21 7
25 4 36 -37z m589 -503 l0 -185 -30 0 c-70 0 -150 67 -170 141 -29 106 59 229
163 229 l37 0 0 -185z m1458 -142 c-4 -325 -4 -329 -31 -409 -107 -320 -432
-508 -762 -439 -38 8 -108 33 -155 56 -114 56 -238 178 -292 289 -63 127 -68
166 -68 518 l0 312 656 0 655 0 -3 -327z m277 293 c131 -100 78 -311 -84 -333
l-41 -6 0 188 0 188 45 -5 c27 -4 59 -16 80 -32z m-402 -1193 c10 -38 20 -78
23 -90 6 -22 3 -23 -43 -23 -29 0 -65 8 -88 20 -22 11 -50 20 -62 20 -33 0
-29 28 8 48 17 9 54 33 82 54 29 20 54 37 57 37 3 1 13 -29 23 -66z m-528
-108 c55 0 119 3 143 8 l42 7 0 -53 0 -52 -95 -95 -95 -95 -95 95 -95 95 0 53
0 53 48 -8 c26 -4 92 -8 147 -8z m532 -325 c-110 -152 -231 -310 -237 -310 -8
0 -178 214 -186 233 -2 7 53 73 122 146 l127 132 93 -92 c79 -79 91 -95 81
-109z m-763 61 l129 -129 -98 -125 -99 -125 -123 164 c-68 90 -123 168 -123
173 0 9 170 170 180 171 3 0 63 -58 134 -129z m-421 67 c-55 -59 -68 -111 -39
-166 27 -52 307 -417 329 -429 30 -17 92 -16 125 1 15 8 72 73 127 145 55 72
103 130 107 131 3 0 52 -59 108 -130 56 -72 111 -137 123 -145 31 -22 109 -19
139 4 32 25 323 418 333 449 13 42 -4 87 -48 132 l-42 43 45 -7 c150 -23 306
-105 434 -229 l91 -88 -65 -62 c-214 -203 -902 -842 -909 -845 -5 -2 -12 52
-16 120 -13 232 -20 267 -53 300 -43 43 -104 49 -154 14 -21 -13 -217 -183
-438 -376 l-400 -350 0 275 0 276 -25 24 c-29 30 -64 32 -98 5 -20 -16 -27
-31 -29 -68 l-3 -47 -175 -3 c-96 -1 -179 -1 -185 2 -15 5 26 368 50 452 86
298 334 529 640 597 56 13 60 8 28 -25z m-1217 -739 c84 -35 88 -44 55 -123
l-20 -45 -88 35 c-48 20 -92 40 -97 44 -9 9 16 84 36 108 15 18 32 15 114 -19z
m-68 -287 c25 -10 42 -23 42 -32 -1 -8 -49 -134 -108 -280 l-107 -265 -35 1
c-42 2 -148 47 -156 67 -3 8 41 128 97 268 55 140 105 264 110 276 l8 23 53
-21 c29 -12 72 -28 96 -37z"/>
<path d="M1500 3343 c-8 -3 -25 -17 -37 -31 -19 -23 -25 -24 -48 -14 -39 18
-63 15 -90 -13 -45 -44 -23 -110 43 -130 25 -7 28 -23 10 -48 -11 -14 -19 -14
-55 -5 -35 10 -45 9 -67 -5 -53 -35 -43 -104 19 -134 30 -14 35 -21 29 -38 -4
-11 -7 -35 -7 -54 0 -39 31 -71 68 -71 25 0 75 35 75 53 0 7 4 18 8 24 12 19
74 -6 67 -27 -4 -8 -16 -43 -28 -77 l-22 -62 21 -28 c24 -32 78 -42 106 -21 9
7 47 88 83 180 l66 166 34 -14 c73 -30 125 -5 125 60 0 37 -32 71 -77 82 -20
5 -23 11 -18 38 16 84 -101 121 -141 44 -8 -15 -13 -15 -42 -3 -28 12 -32 18
-26 39 9 36 -4 64 -36 81 -31 16 -36 17 -60 8z m98 -278 c6 -5 -18 -55 -27
-55 -5 0 -21 4 -35 10 -23 8 -24 12 -15 39 10 28 12 29 42 19 18 -6 33 -12 35
-13z"/>
<path d="M2840 3542 c-19 -15 -25 -40 -47 -216 -13 -109 -22 -209 -19 -223 10
-37 66 -56 149 -50 82 5 107 23 107 77 0 45 -24 70 -68 70 -37 0 -36 -8 -17
130 20 147 19 186 -5 210 -25 25 -71 26 -100 2z"/>
<path d="M2515 3485 c-60 -59 0 -165 78 -136 75 29 53 161 -28 161 -14 0 -37
-11 -50 -25z"/>
<path d="M3258 3500 c-24 -15 -41 -72 -29 -103 11 -28 47 -57 72 -57 9 0 28 9
43 21 34 27 37 98 6 129 -21 21 -64 26 -92 10z"/>
<path d="M2771 2983 c-67 -14 -101 -66 -101 -155 0 -69 13 -113 49 -170 36
-56 112 -104 182 -113 105 -15 221 50 270 152 29 59 32 186 6 226 -36 56 -57
62 -227 64 -85 0 -166 -1 -179 -4z m275 -156 c9 -24 -20 -90 -49 -111 -68 -50
-162 -6 -174 82 l-6 42 112 0 c83 0 113 -3 117 -13z"/>
<path d="M3209 499 c-397 -370 -399 -372 -399 -403 0 -38 37 -76 74 -76 29 0
71 36 377 321 397 370 399 372 399 403 0 39 -37 76 -74 76 -30 0 -70 -34 -377
-321z"/>
<path d="M2547 518 c-427 -399 -417 -388 -417 -424 0 -41 32 -74 72 -74 32 0
74 36 398 342 176 166 195 187 198 220 2 29 -2 40 -24 57 -49 39 -64 31 -227
-121z"/>
<path d="M1355 475 c-14 -13 -25 -31 -25 -40 0 -8 -9 -94 -20 -190 -21 -184
-19 -214 19 -234 31 -17 58 -13 85 12 23 20 27 35 46 205 11 100 20 192 20
203 0 28 -44 69 -75 69 -14 0 -37 -11 -50 -25z"/>
</g>
</svg>
