<?xml version="1.0" standalone="no"?>
<!DOCTYPE svg PUBLIC "-//W3C//DTD SVG 20010904//EN"
 "http://www.w3.org/TR/2001/REC-SVG-20010904/DTD/svg10.dtd">
<svg version="1.0" xmlns="http://www.w3.org/2000/svg"
 width="36pt" height="36pt" viewBox="0 0 512.000000 512.000000"
 preserveAspectRatio="xMidYMid meet">

<g transform="translate(0.000000,512.000000) scale(0.100000,-0.100000)"
fill="#FFFFFF" stroke="none">
<path d="M134 4556 c-41 -18 -103 -81 -120 -122 -18 -43 -20 -805 -3 -917 18
-114 64 -227 137 -335 36 -53 75 -119 88 -147 49 -108 49 -95 -1 -1135 -26
-531 -45 -999 -43 -1040 5 -93 39 -161 111 -225 68 -62 143 -88 234 -83 129 8
225 75 282 197 25 54 26 61 24 231 -1 96 -5 226 -8 289 -6 101 -10 117 -31
138 -30 30 -69 29 -100 -2 -25 -25 -25 -26 -19 -153 4 -70 7 -195 8 -278 2
-148 2 -151 -26 -192 -76 -116 -242 -106 -308 18 -25 46 -25 37 16 890 19 399
35 733 35 743 0 15 12 17 115 17 l115 0 0 -32 c0 -18 7 -193 15 -388 l15 -355
25 -22 c41 -36 97 -26 115 21 5 14 -1 255 -14 600 -15 369 -20 598 -14 638 11
79 40 143 126 272 38 57 79 130 91 162 47 125 50 156 53 620 l3 440 -30 49
c-59 96 -179 139 -279 101 -25 -9 -50 -23 -56 -31 -9 -11 -17 -10 -47 10 -63
43 -156 46 -231 7 l-40 -20 -48 24 c-54 28 -139 32 -190 10z m121 -142 c43
-17 45 -41 45 -490 0 -384 2 -429 17 -446 23 -26 84 -24 109 3 18 20 19 46 24
466 5 426 6 445 24 459 33 23 82 18 105 -12 21 -26 21 -37 21 -460 0 -421 1
-435 20 -454 30 -30 83 -27 109 6 21 26 21 37 21 456 l0 429 25 24 c33 34 74
33 109 -4 l28 -29 -7 -414 c-8 -515 -9 -517 -146 -719 -113 -166 -132 -234
-130 -461 l1 -168 -104 0 -105 0 2 178 c2 169 0 181 -26 260 -19 56 -50 115
-94 180 -148 218 -153 239 -153 760 0 389 1 403 20 422 20 20 54 26 85 14z"/>
<path d="M4852 4494 c-63 -31 -139 -113 -197 -211 -100 -172 -225 -552 -255
-780 -18 -133 -8 -529 18 -698 26 -165 64 -338 108 -482 19 -62 34 -134 34
-161 0 -26 -11 -205 -25 -397 -24 -341 -25 -351 -6 -375 29 -39 100 -40 121 0
7 14 60 655 60 732 0 4 46 8 103 8 l103 0 28 -644 c30 -717 32 -682 -37 -743
-87 -76 -221 -45 -268 62 -17 39 -18 54 -9 166 9 114 9 126 -8 149 -25 33 -83
39 -110 12 -22 -22 -34 -112 -35 -257 -1 -68 3 -89 26 -136 30 -63 92 -125
159 -161 36 -19 58 -23 133 -23 79 0 97 4 142 27 99 52 168 150 179 255 3 26
-8 345 -24 709 l-30 661 30 1059 c16 582 27 1076 24 1097 -5 48 -47 112 -89
137 -45 28 -111 26 -175 -6z m112 -139 c6 -17 -43 -2013 -50 -2052 -4 -22 -8
-23 -113 -23 l-109 0 -31 113 c-93 338 -116 498 -116 842 0 261 1 274 28 390
69 294 194 590 291 689 54 56 89 70 100 41z"/>
<path d="M2420 4140 c-895 -112 -1537 -885 -1470 -1769 31 -408 191 -754 484
-1047 350 -350 784 -513 1284 -482 499 30 970 302 1254 723 258 383 345 847
244 1296 -70 309 -234 600 -463 820 -132 127 -247 209 -292 209 -65 0 -95 -78
-48 -123 13 -12 52 -42 88 -67 91 -64 253 -230 328 -335 71 -102 167 -292 205
-408 61 -185 86 -418 67 -602 -40 -378 -192 -690 -463 -950 -257 -247 -580
-391 -928 -413 -451 -29 -855 122 -1170 438 -126 125 -210 239 -284 388 -242
479 -208 1057 88 1501 192 288 459 493 781 600 179 59 279 75 485 75 188 -1
291 -16 461 -70 96 -30 123 -26 145 20 14 29 15 37 3 62 -18 37 -118 74 -298
110 -140 28 -374 39 -501 24z"/>
<path d="M2480 3774 c-14 -2 -59 -9 -100 -15 -212 -31 -446 -143 -630 -302
-225 -194 -395 -513 -425 -799 -7 -63 -6 -68 18 -92 30 -30 66 -33 97 -8 17
14 26 40 40 120 63 348 251 621 550 798 318 188 730 203 1068 37 426 -208 682
-664 634 -1128 -66 -627 -608 -1079 -1231 -1025 -452 40 -840 347 -980 776
-16 49 -32 108 -36 131 -7 45 -26 68 -65 78 -29 7 -75 -22 -85 -54 -7 -24 35
-189 75 -287 111 -279 337 -522 615 -662 189 -94 358 -134 570 -134 350 1 643
117 891 355 197 188 319 405 375 667 29 136 31 381 5 505 -70 322 -237 592
-485 778 -158 119 -347 205 -531 242 -74 15 -322 28 -370 19z"/>
</g>
</svg>
