<?xml version="1.0" standalone="no"?>
<!DOCTYPE svg PUBLIC "-//W3C//DTD SVG 20010904//EN"
 "http://www.w3.org/TR/2001/REC-SVG-20010904/DTD/svg10.dtd">
<svg version="1.0" xmlns="http://www.w3.org/2000/svg"
 width="36pt" height="36pt" viewBox="0 0 512.000000 512.000000"
 preserveAspectRatio="xMidYMid meet">

<g transform="translate(0.000000,512.000000) scale(0.100000,-0.100000)"
fill="#ffffff" stroke="none">
<path d="M2390 4935 c-355 -52 -651 -235 -849 -524 -291 -425 -293 -965 -5
-1384 30 -43 50 -77 45 -75 -5 1 -227 206 -493 454 -560 523 -584 544 -603
544 -37 0 -70 -33 -188 -191 -99 -133 -127 -176 -127 -201 0 -38 -18 -21 550
-547 239 -222 436 -408 438 -415 1 -7 -80 -61 -180 -121 -101 -61 -225 -136
-276 -167 -55 -34 -105 -58 -121 -58 -15 0 -53 -8 -83 -18 -200 -66 -328 -239
-328 -442 0 -179 99 -334 268 -417 64 -32 85 -37 164 -41 154 -8 279 43 375
152 47 53 103 157 103 191 0 30 20 52 55 58 41 7 107 20 335 66 107 22 198 37
201 33 4 -4 0 -34 -8 -67 -13 -54 -38 -162 -63 -270 -25 -104 -123 -524 -150
-640 -17 -71 -35 -146 -40 -166 -35 -129 12 -290 115 -393 172 -172 446 -165
610 17 30 33 55 66 55 74 0 7 4 21 10 31 5 9 23 60 40 112 17 52 35 104 40
115 5 11 25 70 45 130 20 61 41 122 47 138 l11 27 175 -2 176 -3 47 -140 c125
-370 147 -426 185 -472 96 -117 294 -183 423 -142 162 52 270 160 311 311 18
70 8 181 -33 348 -32 134 -56 235 -109 460 -10 47 -33 141 -49 210 -16 69 -35
148 -41 175 -6 28 -14 63 -19 79 -5 16 -9 40 -9 53 0 19 4 22 23 18 50 -11
436 -89 502 -101 52 -9 62 -17 70 -62 11 -58 56 -141 106 -196 190 -208 521
-193 702 29 74 92 91 147 91 285 0 95 -3 124 -22 170 -29 73 -103 164 -172
211 -56 38 -165 79 -210 79 -14 0 -75 30 -135 68 -61 37 -185 112 -278 167
-92 55 -166 105 -165 110 3 10 180 176 653 614 105 97 223 207 263 245 104
100 104 96 -58 312 -138 184 -159 202 -206 173 -24 -15 -293 -263 -849 -785
-203 -190 -218 -204 -227 -204 -4 0 10 24 32 53 88 114 171 307 207 477 25
117 24 353 0 470 -75 353 -277 640 -580 822 -239 144 -528 203 -797 163z m327
-156 c214 -49 309 -88 437 -174 92 -62 136 -99 136 -115 0 -6 -26 -10 -63 -10
-337 0 -621 -392 -594 -818 6 -91 30 -209 56 -277 68 -173 194 -320 336 -389
70 -35 172 -59 223 -53 58 6 54 -8 -16 -64 -84 -67 -110 -84 -198 -127 -154
-77 -306 -112 -484 -112 -164 0 -319 36 -466 109 -102 51 -259 162 -259 184 0
7 14 11 40 9 103 -7 255 55 355 146 328 296 350 873 45 1210 -100 110 -249
182 -379 182 -36 0 -66 4 -66 9 0 5 21 27 48 48 147 122 285 186 517 241 57
13 276 14 332 1z m-766 -463 c152 -46 272 -176 334 -361 22 -67 34 -134 25
-140 -8 -5 -41 7 -125 45 -192 86 -386 163 -412 163 -39 1 -58 -15 -88 -73
-110 -217 -42 -520 143 -639 101 -65 200 -76 307 -36 36 13 65 22 65 19 0 -2
-19 -25 -42 -50 -145 -157 -333 -186 -496 -78 -43 28 -59 47 -79 92 -93 210
-123 420 -88 622 18 106 28 143 72 252 30 76 41 92 82 122 90 66 208 90 302
62z m1406 -7 c97 -36 142 -73 174 -144 117 -260 132 -552 38 -808 -42 -117
-68 -158 -122 -194 -151 -101 -339 -75 -479 68 -33 33 -58 63 -56 65 2 2 33
-8 68 -22 51 -21 75 -25 129 -22 289 17 461 383 324 688 -26 58 -56 84 -96 83
-27 0 -161 -53 -372 -147 -27 -12 -66 -28 -85 -36 -19 -7 -39 -17 -45 -22 -5
-4 -15 -8 -23 -8 -11 0 -12 11 -7 53 16 116 89 259 175 343 116 113 251 150
377 103z m-1459 -498 c37 -16 123 -52 192 -81 69 -29 131 -59 139 -66 13 -12
13 -21 -3 -69 -9 -30 -32 -74 -49 -97 -106 -139 -275 -110 -356 62 -22 47 -26
69 -26 150 0 98 6 130 26 130 6 0 41 -13 77 -29z m1421 -34 c31 -180 -81 -367
-219 -367 -62 0 -126 34 -164 88 -36 49 -73 149 -59 163 12 12 396 177 414
178 13 1 20 -14 28 -62z m1375 -118 c31 -42 56 -82 55 -90 0 -8 -15 -26 -34
-42 l-33 -27 -63 28 c-35 15 -83 34 -106 42 -24 7 -43 18 -43 24 -1 15 154
156 161 148 3 -4 32 -41 63 -83z m-4119 10 c42 -40 72 -75 68 -79 -4 -4 -54
-25 -111 -48 l-103 -41 -34 31 c-19 16 -35 35 -35 40 0 5 25 42 55 81 30 39
55 74 55 79 0 23 35 1 105 -63z m241 -226 c18 -16 34 -33 34 -39 0 -17 -71
-188 -83 -201 -9 -8 -36 11 -111 83 -55 52 -97 96 -95 98 6 5 203 85 212 85 4
1 24 -11 43 -26z m3628 -15 c59 -23 106 -44 106 -47 0 -4 -45 -48 -99 -99 -72
-67 -102 -88 -108 -79 -6 6 -27 54 -47 106 l-37 94 32 33 c18 19 36 34 40 34
5 0 55 -19 113 -42z m-3361 -233 c49 -46 86 -89 83 -94 -8 -12 -170 -111 -183
-111 -5 0 -27 19 -50 43 l-41 42 41 103 c22 56 45 102 51 102 6 -1 51 -39 99
-85z m3080 24 c15 -33 27 -64 27 -69 0 -4 7 -21 15 -36 8 -16 15 -34 15 -39 0
-10 -83 -85 -94 -85 -8 0 -159 91 -174 105 -10 9 5 29 75 98 48 48 93 87 98
87 6 0 23 -27 38 -61z m-2755 -328 c50 -47 92 -90 92 -96 0 -9 -170 -115 -185
-115 -11 0 -200 180 -200 191 0 14 178 118 190 111 5 -3 52 -44 103 -91z
m2530 25 c34 -21 62 -41 62 -45 0 -11 -196 -191 -207 -191 -16 1 -178 106
-178 116 0 6 44 52 98 103 l98 92 32 -19 c18 -10 60 -36 95 -56z m-2122 -187
c57 -45 162 -106 250 -144 74 -32 89 -45 303 -258 l226 -224 273 -163 c150
-89 271 -164 268 -167 -6 -6 -41 -11 -175 -22 l-113 -11 -77 47 c-42 25 -166
103 -276 172 -202 126 -276 187 -635 516 -36 33 -100 91 -143 129 -43 38 -76
73 -75 78 4 10 109 76 124 77 6 1 29 -13 50 -30z m1600 -8 l64 -39 -92 -85
c-199 -181 -504 -453 -515 -460 -10 -7 -100 41 -193 103 -12 8 14 38 135 160
133 133 157 153 214 176 75 29 171 84 251 142 30 22 59 41 63 41 4 1 37 -17
73 -38z m-1618 -402 c166 -149 302 -277 302 -283 0 -7 -12 -19 -27 -27 -16 -8
-65 -35 -109 -61 -45 -27 -87 -48 -92 -48 -6 0 -10 16 -9 35 1 40 -34 85 -67
85 -12 0 -94 -14 -184 -32 -102 -20 -166 -28 -172 -22 -15 15 -250 426 -250
438 0 12 -4 10 165 113 66 40 125 73 131 73 6 0 146 -122 312 -271z m1979 185
c79 -48 143 -92 143 -99 0 -15 -225 -413 -246 -435 -12 -12 -35 -10 -176 18
-90 18 -172 32 -182 32 -35 0 -66 -39 -66 -82 0 -21 -2 -38 -4 -38 -17 0 -221
134 -221 144 0 15 584 546 600 546 5 0 74 -39 152 -86z m-1158 -80 c-29 -30
-58 -54 -63 -54 -12 0 -106 91 -106 102 0 7 198 16 213 9 5 -2 -15 -28 -44
-57z m-1457 -298 c105 -183 116 -206 101 -206 -5 0 -25 -4 -46 -9 l-38 -9
-137 164 c-75 91 -138 168 -139 172 -4 10 120 82 137 79 8 -1 63 -87 122 -191z
m2985 157 c34 -20 63 -40 63 -43 0 -7 -136 -173 -226 -276 -53 -60 -55 -62
-90 -54 -20 5 -40 12 -44 17 -10 10 207 393 222 393 6 0 40 -17 75 -37z
m-3268 -267 c61 -74 111 -137 111 -141 0 -4 -11 -18 -25 -31 -16 -15 -25 -34
-25 -54 0 -53 -30 -138 -64 -183 -70 -93 -195 -142 -300 -118 -53 12 -139 59
-164 90 -116 142 -117 288 -5 412 50 55 106 85 183 99 36 7 85 22 110 36 25
13 50 24 56 24 6 0 61 -60 123 -134z m3529 110 c21 -13 61 -27 92 -31 104 -12
184 -60 235 -139 69 -109 68 -227 -3 -335 -60 -90 -183 -150 -280 -137 -100
14 -199 81 -242 166 -11 21 -24 70 -30 107 -7 54 -14 73 -35 91 -15 12 -25 26
-23 30 9 24 225 272 236 272 7 0 29 -11 50 -24z m-1994 -303 c86 -53 156 -100
156 -105 0 -6 -17 -7 -37 -4 -21 3 -94 11 -163 17 -319 28 -374 35 -376 44 -4
11 222 142 248 144 9 1 86 -42 172 -96z m-454 -213 c69 -6 157 -14 195 -17 39
-3 76 -10 83 -15 13 -11 17 -115 4 -134 -5 -8 -34 -8 -97 -2 -255 24 -369 38
-376 45 -8 8 11 109 25 132 4 6 15 10 24 7 10 -3 73 -10 142 -16z m1357 8 c12
-15 35 -129 28 -136 -2 -3 -46 -9 -97 -13 -51 -5 -155 -15 -232 -22 -104 -10
-139 -10 -143 -2 -2 7 -3 41 -1 76 l3 64 70 6 c39 4 131 12 205 19 74 6 137
13 139 16 8 7 18 4 28 -8z m-612 -124 c0 -64 -1 -69 -25 -75 -31 -9 -205 -9
-245 0 -29 6 -30 9 -33 65 -2 32 -1 64 1 70 3 7 52 11 153 9 l149 -1 0 -68z
m-815 -185 c55 -7 100 -16 100 -20 0 -14 -81 -213 -91 -224 -6 -6 -46 9 -109
40 -108 53 -113 60 -91 131 5 16 12 41 15 57 7 32 20 33 176 16z m1516 -47 c8
-29 15 -70 16 -92 l3 -40 -99 -45 c-54 -25 -102 -43 -106 -40 -9 6 -103 245
-98 250 6 7 173 23 222 21 l49 -1 13 -53z m-968 -4 c89 -9 143 -8 260 3 81 7
171 13 201 14 l53 0 19 -49 c11 -27 28 -67 38 -90 44 -100 63 -158 55 -165
-23 -18 -134 -63 -146 -59 -7 3 -24 37 -36 76 -37 115 -28 112 -329 112 -296
0 -283 5 -323 -116 -12 -38 -25 -72 -27 -76 -7 -13 -165 72 -160 85 33 78 105
256 111 271 7 20 28 20 284 -6z m-301 -510 c13 -16 -10 -78 -30 -78 -12 0 -60
17 -252 90 -60 23 -139 52 -174 65 -35 13 -65 26 -67 28 -4 4 24 126 33 139 5
9 475 -225 490 -244z m1352 166 c7 -31 9 -60 4 -64 -19 -16 -483 -182 -496
-177 -31 12 -28 97 4 97 5 0 43 16 85 35 41 19 77 35 80 35 2 0 39 16 81 36
43 20 96 43 118 52 22 9 51 22 65 29 39 20 45 16 59 -43z m-1663 -311 l235
-88 -6 -30 c-8 -45 -56 -97 -116 -127 -171 -87 -378 40 -379 232 0 63 8 100
22 100 5 0 115 -39 244 -87z m1718 65 c9 -36 7 -119 -5 -163 -14 -53 -108
-146 -165 -163 -52 -15 -121 -15 -165 0 -79 27 -145 90 -151 144 -3 28 -2 29
227 116 127 48 235 87 241 88 7 0 14 -10 18 -22z"/>
<path d="M1974 3676 c-26 -26 -34 -42 -34 -70 0 -49 23 -92 60 -111 82 -42
170 14 170 111 0 28 -8 44 -34 70 -29 29 -41 34 -81 34 -40 0 -52 -5 -81 -34z"/>
<path d="M2974 3676 c-26 -26 -34 -42 -34 -71 0 -93 90 -151 170 -110 42 21
60 53 60 103 0 37 -6 50 -34 78 -29 29 -41 34 -81 34 -40 0 -52 -5 -81 -34z"/>
</g>
</svg>
