<?xml version="1.0" standalone="no"?>
<!DOCTYPE svg PUBLIC "-//W3C//DTD SVG 20010904//EN"
 "http://www.w3.org/TR/2001/REC-SVG-20010904/DTD/svg10.dtd">
<svg version="1.0" xmlns="http://www.w3.org/2000/svg"
 width="36pt" height="36pt" viewBox="0 0 512.000000 512.000000"
 preserveAspectRatio="xMidYMid meet">

<g transform="translate(0.000000,512.000000) scale(0.100000,-0.100000)"
fill="#ffffff" stroke="none">
<path d="M2075 4901 c-176 -51 -302 -154 -380 -309 -48 -96 -57 -147 -84 -482
-6 -69 -16 -189 -22 -267 l-12 -143 -334 0 c-367 0 -378 -2 -408 -60 -19 -38
-19 -140 0 -205 29 -94 100 -170 195 -211 43 -18 91 -19 1276 -22 805 -1 1241
1 1258 8 35 13 50 53 33 88 l-12 27 -1240 5 c-1230 5 -1240 5 -1279 26 -52 27
-92 78 -107 136 -23 86 -189 78 1615 76 l1601 -3 3 -22 c7 -45 -19 -108 -63
-149 -51 -50 -101 -64 -223 -64 -98 0 -122 -12 -122 -63 0 -48 40 -67 141 -67
151 0 218 21 296 93 67 62 95 124 100 227 6 97 -4 131 -44 157 -24 16 -62 19
-368 23 l-340 5 -6 65 c-4 36 -12 137 -19 225 -22 296 -40 460 -54 508 -45
143 -164 284 -296 350 -133 66 -145 67 -620 66 -373 0 -432 -3 -485 -18z m916
-121 c115 -22 237 -103 299 -200 61 -95 77 -165 95 -422 l6 -88 -556 0 -556 0
-24 -25 c-14 -13 -25 -33 -25 -45 0 -11 11 -32 25 -45 l24 -25 560 0 560 0 5
-32 c3 -18 7 -69 8 -113 l3 -80 -844 -3 c-465 -1 -848 1 -852 5 -5 5 -3 56 3
116 l11 107 144 0 c139 0 145 1 168 25 14 13 25 34 25 45 0 12 -11 32 -25 45
-23 24 -29 25 -159 25 -74 0 -137 3 -139 8 -5 9 19 303 29 352 32 160 207 326
374 353 55 9 790 6 841 -3z"/>
<path d="M2285 2139 c-304 -52 -386 -79 -417 -138 -8 -14 -12 -53 -11 -95 l2
-71 -117 -154 c-105 -138 -123 -157 -177 -185 -33 -18 -127 -67 -210 -110 -82
-44 -177 -93 -210 -111 -33 -18 -96 -52 -140 -75 -44 -24 -92 -51 -107 -62
-46 -32 -84 -103 -107 -195 -31 -133 -70 -298 -92 -393 -11 -47 -29 -124 -40
-173 -27 -118 -27 -146 1 -169 27 -22 49 -23 77 -3 16 11 28 43 48 127 35 151
72 308 92 393 46 198 63 261 80 283 20 27 36 37 258 152 88 46 169 89 180 97
25 17 39 17 32 -1 -3 -7 -34 -51 -69 -97 -56 -75 -63 -89 -63 -130 0 -76 48
-109 159 -109 l48 0 -7 -47 c-4 -27 -15 -82 -26 -123 -34 -136 -33 -143 86
-350 58 -101 113 -189 123 -196 26 -20 56 -17 80 9 30 32 28 55 -15 129 -20
34 -65 114 -100 176 l-65 113 37 160 c42 186 44 212 20 239 -15 16 -31 20 -84
20 -100 0 -102 5 -34 98 243 336 359 491 368 491 6 1 21 -68 34 -156 13 -87
27 -180 32 -208 7 -47 19 -128 39 -255 7 -46 62 -201 115 -325 7 -16 39 -95
70 -175 31 -80 64 -159 71 -177 8 -17 14 -47 14 -66 0 -42 33 -87 64 -87 12 0
32 7 44 16 20 14 22 23 22 122 0 110 1 114 71 340 l22 73 85 -3 85 -3 14 -50
c8 -27 27 -92 44 -144 25 -80 29 -110 29 -202 0 -96 2 -111 20 -129 44 -44
110 -10 110 56 0 20 28 109 64 202 125 322 184 477 189 497 4 11 13 70 22 130
21 140 34 226 45 295 5 30 16 97 24 148 8 52 17 96 20 100 9 8 4 13 177 -223
85 -115 177 -241 206 -280 36 -48 48 -72 40 -77 -7 -4 -41 -8 -77 -8 -78 0
-110 -17 -110 -59 0 -15 16 -98 35 -184 19 -86 35 -163 35 -172 0 -9 -46 -95
-101 -192 -88 -153 -101 -179 -93 -202 5 -14 22 -32 37 -41 43 -24 71 -1 140
120 33 58 80 140 105 184 52 92 56 131 23 261 -11 44 -23 96 -26 116 l-7 36
77 6 c85 6 108 20 132 74 17 43 6 69 -76 182 -34 46 -59 86 -57 89 4 4 106
-48 335 -171 67 -37 123 -74 136 -92 13 -16 30 -59 38 -95 19 -79 55 -233 92
-395 67 -292 80 -324 127 -325 9 0 29 11 45 24 l27 24 -12 63 c-7 35 -26 118
-42 184 -16 66 -37 158 -48 205 -82 355 -91 381 -156 436 -22 20 -86 59 -141
88 -55 29 -163 85 -240 126 -77 40 -162 85 -190 100 -27 15 -78 42 -113 60
-58 30 -70 43 -177 189 -113 153 -115 157 -109 198 14 98 -24 160 -116 187
-70 21 -183 44 -299 62 -104 15 -481 18 -566 3z m530 -134 c60 -9 140 -22 179
-31 39 -8 83 -17 99 -21 15 -3 27 -10 27 -15 0 -6 -44 -60 -98 -122 -54 -61
-106 -123 -116 -138 -30 -45 0 -97 55 -98 19 0 41 15 78 55 29 30 55 55 58 55
3 0 2 -19 -2 -42 -3 -24 -10 -68 -15 -98 -25 -165 -63 -413 -71 -469 -11 -72
-14 -79 -33 -66 -48 35 -262 220 -264 229 -1 6 18 36 44 66 67 79 77 96 70
125 -9 35 -49 59 -79 48 -13 -4 -55 -43 -93 -86 -57 -65 -73 -77 -95 -75 -20
2 -85 70 -293 307 -146 168 -263 308 -258 313 10 10 171 45 287 62 127 19 389
19 520 1z m-572 -552 c98 -110 177 -203 177 -206 0 -13 -283 -238 -289 -231
-4 5 -13 47 -20 94 -7 47 -17 110 -21 140 -12 73 -27 168 -41 260 -6 41 -15
95 -19 120 -5 24 -6 48 -3 53 7 11 -3 21 216 -230z m407 -340 c44 -36 80 -68
80 -70 0 -2 -16 -40 -36 -83 l-37 -80 -92 0 -92 0 -21 48 c-11 26 -27 64 -36
84 l-16 37 77 65 c42 36 80 66 85 66 5 0 45 -30 88 -67z m-321 -235 c18 -39
30 -81 28 -92 -17 -71 -54 -180 -62 -183 -6 -1 -33 57 -62 130 l-51 132 46 42
c26 23 52 42 58 43 6 0 26 -32 43 -72z m608 -23 c-6 -26 -62 -177 -79 -212
-18 -37 -35 -39 -41 -6 -3 15 -14 59 -26 97 l-21 69 27 61 c39 90 37 89 94 48
37 -28 49 -42 46 -57z"/>
</g>
</svg>
