<svg xmlns="http://www.w3.org/2000/svg" viewBox="0 0 330.32 382.47"><defs><style>.cls-1{fill:#f62a15;stroke:#f62a15;}.cls-1,.cls-2{stroke-miterlimit:10;stroke-width:0.9px;}.cls-2{stroke:#000;}.cls-3{font-size:30px;}.cls-3,.cls-4{font-family:ShowcardGothic-Reg, Showcard Gothic;}.cls-4{font-size:50px;fill:red;}.cls-5{fill:#000;}</style></defs><g id="Calque_2" data-name="Calque 2"><g id="Calque_1_-_copie" data-name="Calque 1 - copie"><g id="vOLANT"><g id="homme_gauche" data-name="homme gauche"><path class="cls-1" d="M84.45,13.32C96.38,83.11,106,184.53,239.18,265.47,111.7,255.48,33.84,203.77.36,157.41c13.31,16.57,46.38,31.41,115.8,53.73C67.79,110.44,78.76,49.6,84.45,13.32Z"/><circle cx="56.92" cy="152.34" r="21.16"/></g><g id="homme_milieu" data-name="homme milieu"><path class="cls-1" d="M114,73.36C123,160.39,240.42,251.9,259.72,261,220.5,206.78,193.91,88,239.92,3.21c-51.64,58-55.19,124-53.76,158.14C171.66,159.26,136.11,106.68,114,73.36Z"/><circle cx="163.7" cy="98.31" r="16.66"/></g><g id="homme_droite" data-name="homme droite"><circle cx="259.65" cy="87.09" r="12.15"/><path class="cls-1" d="M242,31.06c-13.27,6-29.33,139.1,24.06,209,3.69-105.58,37.23-165.56,61.81-202.63-46.85,43.41-37,41.2-75.36,94.16C238,107.82,243.87,54.41,242,31.06Z"/></g><g id="BOUT"><path class="cls-2" d="M278.94,225.06c43.08,38.74-27.42,98.47-58.24,51.09C240.31,292.46,298.74,289.11,278.94,225.06Z"/><path class="cls-2" d="M299.52,243.12C360,289.25,272.33,368.61,234.28,299,253.66,309.92,308.3,302.23,299.52,243.12Z"/></g></g><g id="ECRITURE"><text class="cls-3" transform="translate(29.4 243.3)">LES</text><text class="cls-3" transform="translate(160.99 288.35)">du</text><text class="cls-4" transform="translate(29.4 288.32)">F<tspan class="cls-5" x="27.29" y="0">OUS</tspan></text><text class="cls-4" transform="translate(29.4 330.32)">V<tspan class="cls-5" x="32.69" y="0">OLANT</tspan></text><text class="cls-4" transform="translate(29.8 372.32)">A<tspan class="cls-5" x="30.76" y="0">USSONNAIS</tspan></text></g></g></g></svg>