<?xml version="1.0" standalone="no"?>
<!DOCTYPE svg PUBLIC "-//W3C//DTD SVG 20010904//EN"
 "http://www.w3.org/TR/2001/REC-SVG-20010904/DTD/svg10.dtd">
<svg version="1.0" xmlns="http://www.w3.org/2000/svg"
 width="512.000000pt" height="512.000000pt" viewBox="0 0 512.000000 512.000000"
 preserveAspectRatio="xMidYMid meet">

<g transform="translate(0.000000,512.000000) scale(0.100000,-0.100000)"
fill="#ffffff" stroke="none">
<path d="M2411 5084 c-124 -19 -234 -41 -246 -48 -16 -10 -57 -109 -148 -350
-70 -184 -127 -348 -127 -364 0 -58 79 -88 120 -46 11 10 71 156 134 323 63
167 116 305 118 307 10 9 351 55 358 47 12 -12 130 -286 130 -300 0 -11 -1343
-2408 -1356 -2422 -3 -3 -27 17 -55 45 -35 34 -49 55 -46 69 2 11 142 384 311
828 168 444 306 818 306 831 0 60 -78 92 -121 50 -11 -11 -160 -393 -335 -854
l-315 -835 -92 -92 -91 -93 -41 39 c-49 48 -75 56 -112 37 -15 -8 -150 -137
-298 -288 -293 -295 -356 -375 -422 -531 -61 -144 -77 -231 -77 -407 1 -135 4
-168 27 -252 50 -188 136 -339 271 -474 135 -135 286 -221 474 -271 84 -23
118 -26 252 -27 174 0 264 17 412 79 151 64 233 129 526 420 151 148 280 283
288 298 19 37 11 63 -37 112 l-39 41 93 91 92 92 1155 437 c635 240 1233 466
1328 502 118 44 178 72 188 87 7 11 30 132 50 268 34 227 35 248 21 270 -14
22 -94 61 -339 166 l-48 20 0 245 c0 218 -2 246 -17 264 -12 14 -90 43 -241
91 -123 38 -226 72 -229 75 -3 2 -27 119 -53 260 -27 140 -53 264 -59 274 -6
11 -18 23 -28 27 -10 4 -132 29 -271 55 -140 27 -256 51 -259 54 -3 3 -37 105
-75 228 -38 123 -76 230 -84 238 -12 12 -60 16 -266 20 l-251 5 -78 180 c-43
99 -88 188 -100 198 -27 22 -31 22 -298 -19z m944 -701 c32 -104 58 -193 58
-198 0 -8 -1107 -1372 -1780 -2195 -2 -2 -32 25 -68 60 l-63 65 690 1228 691
1227 207 0 207 0 58 -187z m420 -346 l220 -42 42 -225 c24 -124 41 -230 39
-236 -3 -8 -2063 -1694 -2184 -1787 -19 -15 -160 126 -145 145 23 31 1700
2088 1740 2136 25 28 50 52 56 51 7 0 111 -19 232 -42z m693 -709 l102 -31 0
-207 0 -208 -582 -327 c-321 -180 -593 -336 -605 -348 -40 -36 -27 -95 26
-116 36 -16 -17 -43 674 345 307 173 564 314 570 314 15 0 289 -118 300 -130
8 -7 -37 -348 -47 -358 -6 -6 -2539 -964 -2561 -969 -14 -3 -35 11 -69 46 -28
28 -48 52 -45 55 2 2 207 118 454 256 248 139 465 264 483 277 25 19 32 31 32
59 0 42 -29 74 -67 74 -18 0 -212 -104 -523 -279 l-495 -280 -63 62 -62 62 27
26 c16 15 287 237 603 495 1152 938 1496 1218 1527 1245 l32 27 93 -29 c51
-16 139 -43 196 -61z m-3173 -1218 l90 -90 -68 -67 -67 -68 -92 92 -93 93 65
65 c35 36 67 65 70 65 3 0 46 -41 95 -90z m170 -650 l620 -620 -68 -67 -67
-68 -622 622 -623 623 65 65 c35 36 67 65 70 65 3 0 284 -279 625 -620z m108
372 l77 -77 -68 -68 -67 -67 -80 80 -79 80 64 65 c35 36 67 65 70 65 3 0 40
-35 83 -78z m-348 -612 l620 -620 -68 -67 -67 -68 -147 147 c-82 80 -158 151
-170 157 -48 24 -103 -14 -103 -72 0 -24 27 -57 155 -187 l155 -157 -59 -42
c-80 -55 -188 -106 -286 -132 -109 -30 -327 -32 -429 -5 -327 87 -561 318
-649 641 -18 66 -22 106 -21 225 1 127 4 156 27 233 31 102 73 188 130 270
l41 58 355 -355 c196 -195 367 -359 381 -365 31 -11 84 8 94 34 20 54 18 58
-356 432 l-363 363 65 65 c35 36 67 65 70 65 3 0 284 -279 625 -620z m622 203
l-67 -68 -80 80 -80 80 67 67 68 68 80 -80 80 -80 -68 -67z m268 -133 l90 -90
-68 -67 -67 -68 -92 92 -93 93 65 65 c35 36 67 65 70 65 3 0 46 -41 95 -90z"/>
</g>
</svg>
